<svg width="976" height="966" viewBox="0 0 976 966" fill="none" xmlns="http://www.w3.org/2000/svg">
<path d="M495.898 382.312C495.898 382.312 493.079 293.459 450.414 276.267C422.556 265.048 326.528 265.011 243.16 265.011C216.59 265.011 195.062 243.488 195.062 216.925V172.947C195.062 146.384 216.59 124.861 243.16 124.861H447.8C474.37 124.861 495.898 146.384 495.898 172.947V382.312Z" fill="url(#paint0_linear_59_20)"/>
<path d="M495.805 379.848C495.805 379.848 495.637 373.595 494.311 362.731C493.639 357.299 492.649 350.728 491.099 343.28C489.55 335.832 487.421 327.469 484.21 318.677C480.961 309.923 476.629 300.571 469.833 292.283C466.434 288.176 462.327 284.387 457.491 281.568C452.655 278.675 447.035 277.2 441.34 275.987C429.875 273.597 417.814 272.235 405.565 271.059C393.298 269.901 380.825 269.08 368.334 268.408C343.351 267.008 318.331 266.243 294.88 265.795C283.154 265.571 271.821 265.421 261.066 265.347C255.688 265.328 250.46 265.291 245.4 265.272C240.378 265.328 235.374 265.197 230.799 263.965C221.594 261.707 214.107 256.741 208.748 251.291C203.371 245.803 200.028 239.867 198.049 234.733C196.07 229.6 195.379 225.288 195.099 222.357C194.968 220.883 194.912 219.763 194.912 218.997C194.912 218.232 194.875 217.84 194.875 217.84H195.286C195.286 217.84 195.305 218.232 195.361 218.979C195.398 219.725 195.51 220.845 195.697 222.283C196.089 225.157 197.004 229.357 199.076 234.323C201.167 239.251 204.622 244.925 209.98 250.059C215.32 255.136 222.64 259.597 231.359 261.595C235.766 262.677 240.172 262.696 245.382 262.528C250.442 262.453 255.688 262.379 261.066 262.285C271.839 262.173 283.192 262.005 294.936 262.211C318.425 262.491 343.482 263.088 368.558 264.283C381.087 265.029 393.615 265.981 405.92 267.213C418.243 268.483 430.361 269.939 442.087 272.477C445.018 273.093 447.912 273.877 450.918 274.829L452.953 275.576L453.458 275.763L453.7 275.856L454.055 276.005L455.119 276.472C456.538 277.107 457.883 277.853 459.19 278.637C464.399 281.811 468.694 285.936 472.185 290.341C479.168 299.208 483.369 308.877 486.506 317.856C489.643 326.872 491.51 335.384 492.817 342.944C494.143 350.504 494.908 357.149 495.413 362.618C495.935 368.088 496.066 372.4 496.16 375.349C496.234 378.28 496.216 379.867 496.216 379.867H495.805V379.848Z" fill="url(#paint1_linear_59_20)"/>
<path d="M495.898 627.498C495.898 627.498 492.407 517.626 439.659 496.384C405.21 482.514 286.497 482.458 183.392 482.458C150.549 482.458 123.923 455.84 123.923 423.005V368.629C123.923 335.794 150.549 309.176 183.392 309.176H436.41C469.254 309.176 495.879 335.794 495.879 368.629V627.498H495.898Z" fill="url(#paint2_linear_59_20)"/>
<path d="M495.693 621.096C495.693 621.096 495.543 619.155 495.151 615.533C494.759 611.912 494.031 606.629 493.023 599.909C491.977 593.208 490.502 585.107 488.299 575.941C487.197 571.368 485.89 566.533 484.359 561.493C482.828 556.472 481.129 551.208 479.019 545.869C474.837 535.229 469.272 523.936 460.908 514.267C456.725 509.469 451.796 505.176 446.101 502.096C444.701 501.312 443.207 500.64 441.713 500.005L441.153 499.763L440.873 499.651L440.724 499.595L439.473 499.147C438.651 498.867 437.755 498.512 436.989 498.325C435.421 497.896 433.871 497.429 432.135 497.056C430.454 496.645 428.718 496.291 426.963 495.973C412.959 493.397 397.984 492.091 382.804 491.064C367.606 490.037 352.108 489.496 336.592 488.973C305.579 487.723 274.509 487.163 245.363 486.827C230.799 486.733 216.702 486.285 203.333 486.061C196.649 485.931 190.151 485.8 183.859 485.688C183.075 485.688 182.291 485.651 181.506 485.651L180.255 485.613L179.098 485.557C177.623 485.52 175.811 485.296 174.243 485.091C171.069 484.643 168.007 483.821 165.094 482.851C153.387 478.856 144.686 471.24 138.636 463.699C132.531 456.083 128.909 448.317 126.799 441.747C124.651 435.157 124.091 429.725 123.886 426.067C123.811 424.237 123.774 422.819 123.811 421.867C123.811 420.915 123.83 420.429 123.83 420.429H124.334C124.334 420.429 124.334 420.915 124.371 421.848C124.371 422.781 124.465 424.181 124.614 425.992C124.95 429.595 125.79 434.896 128.068 441.299C130.328 447.664 134.118 455.131 140.242 462.336C146.329 469.485 154.937 476.429 166.009 480.032C168.772 480.909 171.648 481.619 174.635 481.992C177.604 482.384 180.703 482.421 183.84 482.403C190.133 482.403 196.63 482.403 203.315 482.403C216.684 482.421 230.781 482.459 245.363 482.477C274.528 482.608 305.654 482.944 336.742 483.952C352.295 484.512 367.83 485.221 383.122 486.36C398.395 487.499 413.444 488.917 427.803 491.68C434.935 493.117 442.068 494.872 448.211 498.475C454.373 501.984 459.545 506.725 463.839 511.877C472.428 522.256 477.824 533.96 481.876 544.861C485.89 555.837 488.504 566.253 490.427 575.549C492.35 584.845 493.545 593.021 494.386 599.797C496.01 613.331 496.197 621.115 496.197 621.115H495.693V621.096Z" fill="url(#paint3_linear_59_20)"/>
<path d="M495.898 824.432C495.898 824.432 499.968 695.949 561.659 671.104C601.953 654.882 740.776 654.826 861.357 654.826C899.764 654.826 930.908 623.69 930.908 585.293V521.714C930.908 483.317 899.764 452.181 861.357 452.181H565.45C527.042 452.181 495.898 483.317 495.898 521.714V824.451V824.432Z" fill="url(#paint4_linear_59_20)"/>
<g style="mix-blend-mode:multiply">
<path d="M929.004 505.549C923.626 482.944 907.214 464.632 885.76 456.586C885.835 461.944 886.75 467.32 888.561 472.472L862.477 498.549C858.556 502.469 856.39 507.677 856.39 513.24C856.39 518.802 858.556 524.01 862.458 527.893L862.626 528.061C866.547 531.981 871.757 534.146 877.321 534.146C882.885 534.146 888.076 531.981 892.015 528.061L917.558 502.525C921.236 503.981 925.083 504.989 929.022 505.549H929.004Z" fill="#E6E7E8"/>
</g>
<path d="M495.898 291.853C495.898 291.853 498.718 203 541.382 185.808C569.24 174.589 665.268 174.552 748.636 174.552C775.206 174.552 796.734 153.029 796.734 126.467V82.4879C796.734 55.9253 775.206 34.4026 748.636 34.4026H543.996C517.426 34.4026 495.898 55.9253 495.898 82.4879V291.853Z" fill="url(#paint5_linear_59_20)"/>
<g style="mix-blend-mode:multiply">
<path d="M748.637 34.4026H740.944C741.952 42.5973 745.854 50.1946 752.221 56.3919C750.989 58.3519 750 61.5626 746.583 65.2959C743.166 69.0293 734.315 73.6959 734.315 73.6959C734.315 73.6959 746.676 78.1013 756.311 78.1013C763.891 78.1013 775.673 76.1413 785.886 68.8053C786.857 68.8426 793.71 70.8773 795.278 70.7466C790.031 49.8586 771.136 34.4026 748.637 34.4026Z" fill="#E6E7E8"/>
</g>
<g style="mix-blend-mode:multiply">
<path d="M195.79 309.194H183.411C152.099 309.194 126.462 333.386 124.129 364.093L134.566 369.002L174.168 365.325L195.809 309.176L195.79 309.194Z" fill="#D1D3D4"/>
</g>
<g style="mix-blend-mode:multiply">
<path d="M246.95 163.613V124.843H243.141C219.764 124.843 200.29 141.512 195.958 163.613H246.95Z" fill="#D1D3D4"/>
</g>
<path d="M495.898 914.891C495.898 914.891 491.828 786.408 430.137 761.563C389.843 745.341 230.108 745.285 109.546 745.285C71.1386 745.285 39.9944 714.149 39.9944 675.752V612.173C39.9944 573.776 71.1386 542.64 109.546 542.64H426.365C464.772 542.64 495.917 573.776 495.917 612.173V914.909L495.898 914.891Z" fill="url(#paint6_linear_59_20)"/>
<path d="M495.581 915.992C495.581 915.992 495.506 913.64 495.188 909.216C494.871 904.792 494.33 898.315 493.321 890.12C492.294 881.925 490.819 871.976 488.485 860.701C486.133 849.445 482.959 836.808 478.104 823.499C475.639 816.853 472.783 810.059 469.31 803.264C465.762 796.525 461.598 789.787 456.464 783.533C451.348 777.299 445.205 771.531 437.923 767.181C437.008 766.659 436.13 766.061 435.178 765.576L432.284 764.232C431.313 763.803 430.361 763.261 429.353 762.925L426.29 761.824C422.164 760.536 417.926 759.453 413.575 758.595C396.211 755.16 377.931 753.461 359.372 752.061C340.812 750.699 321.898 749.84 303.002 749.168C265.192 747.805 227.345 747.32 191.869 747.059C174.131 746.984 156.99 746.909 140.728 746.853C132.605 746.853 124.689 746.835 117.033 746.816C109.397 746.891 101.947 746.704 94.9075 745.248C87.9243 743.736 81.5386 741.141 75.7878 738.117C73.0244 736.4 70.2423 734.888 67.8524 732.928C66.6387 731.976 65.3504 731.173 64.2674 730.128C63.1658 729.12 62.0829 728.131 60.9999 727.16C59.8796 726.227 59.0021 725.088 58.0498 724.08C57.1162 723.035 56.1453 722.045 55.3051 721C54.5022 719.917 53.6993 718.853 52.9151 717.808C52.1309 716.763 51.3467 715.755 50.7492 714.653C48.0419 710.435 46.0067 706.272 44.4943 702.408C43.8221 700.448 43.0192 698.637 42.5524 696.845C42.0856 695.053 41.6562 693.373 41.2641 691.805C40.8533 690.237 40.7413 688.744 40.4985 687.4C40.3118 686.037 40.0691 684.824 39.9757 683.704C39.7517 679.261 39.6396 676.891 39.6396 676.891H40.2745C40.2745 676.891 40.4985 679.224 40.9093 683.629C41.0587 684.712 41.3388 685.925 41.5815 687.251C41.8802 688.557 42.0483 690.032 42.5151 691.544C42.9819 693.056 43.4673 694.699 43.9901 696.435C44.5129 698.171 45.3531 699.925 46.0627 701.811C49.2928 709.203 54.4835 717.827 62.8484 725.275C63.9127 726.171 64.9956 727.104 66.0786 728.019C67.1429 728.989 68.4312 729.717 69.6075 730.595C71.9601 732.387 74.6862 733.749 77.3562 735.299C82.939 737.987 89.0259 740.376 95.673 741.664C97.3161 741.981 98.9592 742.112 100.621 742.373C101.48 742.467 102.227 742.653 103.179 742.653C104.094 742.691 105.009 742.709 105.942 742.747C106.857 742.784 107.791 742.803 108.724 742.84H109.415L109.583 742.859C109.471 742.859 109.807 742.859 109.583 742.859H109.938L111.338 742.821C113.224 742.784 115.11 742.747 117.033 742.709C124.689 742.56 132.587 742.411 140.728 742.261C156.99 741.981 174.15 741.608 191.906 741.608C209.663 741.571 228.017 741.459 246.651 741.739C265.304 741.981 284.256 742.336 303.207 742.971C322.159 743.699 341.129 744.669 359.801 746.107C369.137 746.835 378.398 747.675 387.566 748.851C396.715 750.008 405.77 751.352 414.677 753.256C416.899 753.685 419.121 754.283 421.342 754.824C423.527 755.384 425.954 756.131 428.102 756.821L431.164 757.941L431.537 758.091L431.724 758.165C432.116 758.315 431.948 758.259 432.079 758.315L432.881 758.688L434.469 759.435L437.605 760.984C438.632 761.525 439.585 762.197 440.555 762.795C448.379 767.667 454.783 773.957 460.049 780.621C465.314 787.304 469.478 794.379 472.988 801.397C476.424 808.453 479.206 815.472 481.577 822.285C483.93 829.099 485.797 835.725 487.365 842.072C488.859 848.437 490.073 854.504 491.081 860.216C493.079 871.659 494.218 881.701 494.983 889.971C495.767 898.24 495.954 904.773 496.103 909.216C496.215 913.659 496.197 916.029 496.197 916.029H495.562L495.581 915.992Z" fill="url(#paint7_linear_59_20)"/>
<g style="mix-blend-mode:multiply">
<path d="M39.9758 612.155V625.483H74.4249L102.432 597.483V542.976C67.3483 546.523 39.9758 576.147 39.9758 612.155Z" fill="#D1D3D4"/>
</g>
<path d="M396.64 608.347C385.474 608.347 379.387 614.955 379.387 626.528V664.141C379.387 675.715 385.493 682.323 396.64 682.323C407.787 682.323 413.892 675.715 413.892 664.141V626.528C413.892 614.955 407.787 608.347 396.64 608.347ZM402.522 664.851C402.522 670.021 400.244 671.981 396.64 671.981C393.036 671.981 390.758 670.021 390.758 664.851V625.8C390.758 620.629 393.036 618.669 396.64 618.669C400.244 618.669 402.522 620.629 402.522 625.8V664.851Z" fill="#939598"/>
<path d="M440.761 609.168C439.006 614.021 437.045 618.259 428.251 618.259V626.323H437.027V681.483H448.398V609.168H440.742H440.761Z" fill="#939598"/>
<path d="M495.581 290.789C495.581 290.789 495.394 284.443 496.384 273.411C496.888 267.904 497.709 261.221 499.147 253.643C500.622 246.064 502.695 237.589 505.999 228.667C509.323 219.781 513.897 210.392 520.75 201.861C527.565 193.424 536.938 185.827 548.458 182.373C559.885 178.92 572.134 177.464 584.513 176.288C596.93 175.187 609.571 174.589 622.211 174.197C647.511 173.507 672.811 173.6 696.524 173.731C708.38 173.805 719.845 173.861 730.712 173.936C736.145 173.955 741.429 173.973 746.545 173.992C749.103 173.992 751.605 173.992 754.051 173.768C756.497 173.507 758.868 173.096 761.146 172.517C770.333 170.203 777.857 165.349 783.253 159.955C788.668 154.504 792.066 148.568 794.027 143.453C796.006 138.301 796.678 133.989 796.958 131.059C797.089 129.584 797.145 128.464 797.145 127.699C797.164 126.933 797.182 126.541 797.182 126.541H797.612C797.612 126.541 797.612 126.933 797.631 127.699C797.668 128.464 797.649 129.621 797.593 131.115C797.425 134.083 796.977 138.525 795.11 143.864C793.28 149.184 789.994 155.419 784.56 161.243C781.834 164.136 778.567 166.917 774.758 169.325C770.949 171.733 766.561 173.656 761.781 175C759.372 175.635 756.889 176.139 754.312 176.456C753.005 176.587 751.624 176.736 750.41 176.755L749.458 176.792H748.45L746.545 176.848C741.429 176.941 736.145 177.035 730.693 177.128C719.826 177.296 708.362 177.52 696.505 177.464C672.811 177.52 647.53 177.613 622.342 178.509C609.739 178.827 597.173 179.312 584.868 180.301C578.725 180.787 572.657 181.459 566.719 182.336C560.8 183.213 554.994 184.333 549.579 185.957C538.955 189.093 529.955 195.963 523.252 203.877C516.53 211.885 511.862 220.92 508.408 229.563C505.01 238.243 502.676 246.549 500.958 253.979C499.259 261.427 498.232 268.053 497.541 273.504C496.888 278.973 496.44 283.285 496.253 286.253C496.047 289.203 496.01 290.789 496.01 290.789H495.581Z" fill="url(#paint8_linear_59_20)"/>
<path d="M495.898 537.04C495.898 537.04 499.39 427.168 552.137 405.925C586.586 392.056 705.3 392 808.404 392C841.247 392 867.873 365.381 867.873 332.547V278.171C867.873 245.336 841.247 218.717 808.404 218.717H555.386C522.542 218.717 495.917 245.336 495.917 278.171V537.04H495.898Z" fill="url(#paint9_linear_59_20)"/>
<path d="M495.581 535.808C495.581 535.808 495.543 533.848 495.618 530.171C495.711 526.493 495.935 521.117 496.552 514.304C497.168 507.491 498.157 499.221 499.931 489.832C501.724 480.461 504.244 469.952 508.277 458.901C512.329 447.888 517.875 436.24 526.239 425.6C534.53 415.053 546.013 405.533 560.184 401.035C567.205 398.776 574.561 397.301 582.011 396.107C589.48 394.912 597.079 394.035 604.753 393.344C620.101 391.944 635.748 391.197 651.395 390.712C682.688 389.835 713.982 389.965 743.315 390.115C757.991 390.208 772.163 390.283 785.606 390.376C792.328 390.395 798.863 390.432 805.193 390.451C808.348 390.469 811.466 390.451 814.472 390.133C817.497 389.816 820.429 389.256 823.248 388.547C834.582 385.635 843.843 379.531 850.49 372.811C857.156 366.035 861.282 358.661 863.672 352.296C866.081 345.912 866.902 340.573 867.238 336.952C867.406 335.141 867.481 333.741 867.481 332.789C867.5 331.856 867.518 331.352 867.518 331.352H868.06C868.06 331.352 868.06 331.837 868.078 332.789C868.116 333.741 868.097 335.16 868.022 337.008C867.817 340.685 867.294 346.173 865.016 352.8C862.794 359.389 858.799 367.136 852.114 374.397C848.791 378.019 844.758 381.472 840.071 384.496C835.385 387.52 829.97 389.928 824.051 391.627C821.082 392.429 818.001 393.064 814.827 393.475C813.221 393.624 811.485 393.829 809.991 393.867L808.815 393.923L807.564 393.96C806.78 393.96 805.995 393.997 805.193 393.997C798.863 394.109 792.328 394.221 785.587 394.333C772.144 394.539 757.954 394.819 743.296 394.763C713.982 394.837 682.707 394.949 651.544 396.051C635.972 396.443 620.4 397.04 605.201 398.328C597.602 398.963 590.096 399.784 582.758 400.885C575.439 402.005 568.269 403.405 561.603 405.477C559.942 406 558.299 406.579 556.786 407.195L555.684 407.643L554.471 408.203C553.761 408.501 552.977 408.949 552.23 409.323C549.243 410.909 546.386 412.683 543.66 414.605C538.227 418.469 533.484 423.117 529.376 428.083C521.161 438.088 515.466 449.307 511.283 460.021C509.174 465.397 507.493 470.68 505.981 475.739C504.468 480.797 503.217 485.669 502.19 490.28C500.118 499.501 498.848 507.696 498.008 514.453C497.205 521.229 496.664 526.568 496.421 530.208C496.16 533.867 496.122 535.808 496.122 535.808H495.581Z" fill="url(#paint10_linear_59_20)"/>
<path style="mix-blend-mode:multiply" d="M495.898 966C746.759 966 950.121 943.118 950.121 914.891C950.121 886.664 746.759 863.781 495.898 863.781C245.038 863.781 41.675 886.664 41.675 914.891C41.675 943.118 245.038 966 495.898 966Z" fill="url(#paint11_radial_59_20)"/>
<path d="M396.64 360.136C385.474 360.136 379.387 366.744 379.387 378.317V415.93C379.387 427.504 385.493 434.112 396.64 434.112C407.787 434.112 413.892 427.504 413.892 415.93V378.317C413.892 366.744 407.787 360.136 396.64 360.136ZM402.522 416.64C402.522 421.81 400.244 423.77 396.64 423.77C393.036 423.77 390.758 421.81 390.758 416.64V377.589C390.758 372.418 393.036 370.458 396.64 370.458C400.244 370.458 402.522 372.418 402.522 377.589V416.64Z" fill="#939598"/>
<path d="M454.503 380.184V378.317C454.503 366.744 448.715 360.136 437.549 360.136C426.384 360.136 420.596 366.744 420.596 378.317V382.237H431.35V377.589C431.35 372.418 433.628 370.458 437.232 370.458C440.836 370.458 443.114 372.213 443.114 378.728V382.76C443.114 388.546 440.537 390.413 436.298 390.413H431.855V400.736H435.682C440.854 400.736 443.114 403.218 443.114 409.938V415.613C443.114 422.016 440.836 423.77 437.232 423.77C433.628 423.77 431.35 421.81 431.35 416.64V409.92H420.596V415.912C420.596 427.485 426.384 434.093 437.549 434.093C448.715 434.093 454.503 427.485 454.503 415.912V410.237C454.503 402.901 452.225 397.525 446.549 395.042C452.02 392.765 454.503 387.912 454.503 380.165V380.184Z" fill="#939598"/>
<path d="M396.64 160.701C385.474 160.701 379.387 167.309 379.387 178.883V216.496C379.387 228.069 385.493 234.677 396.64 234.677C407.787 234.677 413.892 228.069 413.892 216.496V178.883C413.892 167.309 407.787 160.701 396.64 160.701ZM402.522 217.205C402.522 222.376 400.244 224.336 396.64 224.336C393.036 224.336 390.758 222.376 390.758 217.205V178.155C390.758 172.984 393.036 171.024 396.64 171.024C400.244 171.024 402.522 172.984 402.522 178.155V217.205Z" fill="#939598"/>
<path d="M442.012 183.829C437.456 183.829 434.151 185.696 432.097 189.093L433.031 171.845H452.767V161.523H422.799L420.726 203.467H431.481V201.301C431.481 196.131 433.759 194.171 437.363 194.171C440.966 194.171 443.244 196.131 443.244 201.301V217.205C443.244 222.376 440.966 224.224 437.363 224.224C433.759 224.224 431.481 222.357 431.481 217.205V210.485H420.726V216.477C420.726 228.051 426.515 234.659 437.68 234.659C448.846 234.659 454.634 228.051 454.634 216.477V200.368C454.634 189.728 450.395 183.829 442.031 183.829H442.012Z" fill="#939598"/>
<path d="M555.404 519.475C544.239 519.475 538.152 526.083 538.152 537.656V575.269C538.152 586.843 544.239 593.451 555.404 593.451C566.57 593.451 572.657 586.843 572.657 575.269V537.656C572.657 526.083 566.57 519.475 555.404 519.475ZM561.286 575.979C561.286 581.149 559.008 583.109 555.404 583.109C551.801 583.109 549.523 581.149 549.523 575.979V536.928C549.523 531.757 551.801 529.797 555.404 529.797C559.008 529.797 561.286 531.757 561.286 536.928V575.979Z" fill="#939598"/>
<path d="M613.884 537.656C613.884 526.083 608.096 519.475 596.93 519.475C585.764 519.475 579.976 526.083 579.976 537.656V544.675H590.731V536.928C590.731 531.757 593.009 529.797 596.613 529.797C600.216 529.797 602.494 531.552 602.494 538.067C602.494 558.936 579.976 562.445 579.976 583.725V592.611H612.838V582.288H591.347C589.181 569.576 613.865 561.419 613.865 537.656H613.884Z" fill="#939598"/>
<path d="M555.404 273.037C544.239 273.037 538.152 279.645 538.152 291.218V328.832C538.152 340.405 544.239 347.013 555.404 347.013C566.57 347.013 572.657 340.405 572.657 328.832V291.218C572.657 279.645 566.57 273.037 555.404 273.037ZM561.286 329.541C561.286 334.712 559.008 336.672 555.404 336.672C551.801 336.672 549.523 334.712 549.523 329.541V290.49C549.523 285.32 551.801 283.36 555.404 283.36C559.008 283.36 561.286 285.32 561.286 290.49V329.541Z" fill="#939598"/>
<path d="M610.373 322.728V273.858H597.976L577.306 322.728V333.05H599.003V346.173H610.373V333.05H615.751V322.728H610.373ZM599.003 322.728H587.744L599.003 295.978V322.728Z" fill="#939598"/>
<path d="M555.404 70.4666C544.239 70.4666 538.152 77.0746 538.152 88.6479V126.243C538.152 137.816 544.239 144.424 555.404 144.424C566.57 144.424 572.657 137.816 572.657 126.243V88.6479C572.657 77.0746 566.57 70.4666 555.404 70.4666ZM561.286 126.971C561.286 132.141 559.008 134.101 555.404 134.101C551.801 134.101 549.523 132.141 549.523 126.971V87.9199C549.523 82.7492 551.801 80.7892 555.404 80.7892C559.008 80.7892 561.286 82.7492 561.286 87.9199V126.971Z" fill="#939598"/>
<path d="M601.168 96.5066C596.108 96.5066 592.598 98.7839 590.619 102.909V89.6932C590.619 82.7679 592.897 80.8079 596.93 80.8079C600.552 80.8079 602.812 82.7679 602.812 87.9386V90.5146H613.566V88.6479C613.566 77.0746 607.778 70.4666 596.613 70.4666C584.831 70.4666 579.248 77.0746 579.248 89.2639V126.243C579.248 137.816 585.354 144.424 596.501 144.424C607.647 144.424 613.753 137.816 613.753 126.243V113.027C613.753 102.387 609.515 96.5066 601.15 96.5066H601.168ZM602.401 126.989C602.401 132.16 600.123 134.008 596.501 134.008C592.878 134.008 590.619 132.141 590.619 126.989V113.979C590.619 108.808 592.897 106.848 596.501 106.848C600.104 106.848 602.401 108.808 602.401 113.979V126.989Z" fill="#939598"/>
<path d="M429.651 619.808V626.323H437.027L438.427 627.872V681.501H448.398V610.717H442.143C440.388 615.571 438.427 619.808 429.633 619.808H429.651Z" fill="white"/>
<path d="M398.04 609.877C386.875 609.877 380.788 616.485 380.788 628.059V665.672C380.788 670.843 382.02 675.024 384.354 678.067C387.248 680.829 391.375 682.323 396.64 682.323C407.806 682.323 413.893 675.715 413.893 664.141V626.528C413.893 621.357 412.66 617.176 410.326 614.133C407.432 611.371 403.306 609.877 398.04 609.877ZM403.922 666.381C403.922 671.552 401.644 673.512 398.04 673.512C395.856 673.512 394.157 672.784 393.167 671.067C391.636 670.04 390.758 668.061 390.758 664.851V625.8C390.758 620.629 393.036 618.669 396.64 618.669C398.825 618.669 400.524 619.397 401.513 621.115C403.044 622.141 403.922 624.12 403.922 627.331V666.381Z" fill="white"/>
<path d="M438.968 361.686C427.803 361.686 422.015 368.294 422.015 379.867V382.256H431.369V377.608C431.369 372.438 433.647 370.478 437.251 370.478C439.361 370.478 441.004 371.075 442.012 372.867C443.618 373.931 444.533 376.152 444.533 380.296V384.328C444.533 390.115 441.956 391.982 437.717 391.982H433.274V400.774H435.701C438.595 400.774 440.555 401.595 441.75 403.48C443.655 404.806 444.551 407.344 444.551 411.507V417.182C444.551 423.584 442.273 425.339 438.67 425.339C436.485 425.339 434.786 424.611 433.796 422.894C432.265 421.867 431.388 419.888 431.388 416.678V411.507H422.033V417.499C422.033 422.782 423.247 427 425.618 430.062C428.438 432.712 432.433 434.15 437.587 434.15C448.752 434.15 454.541 427.542 454.541 415.968V410.294C454.541 405.608 453.607 401.726 451.441 398.888C450.47 397.992 449.331 397.227 447.987 396.648L446.586 395.099C452.057 392.822 454.541 387.968 454.541 380.222V378.355C454.541 373.072 453.327 368.854 450.956 365.792C448.136 363.142 444.14 361.704 438.987 361.704L438.968 361.686Z" fill="white"/>
<path d="M398.04 361.686C386.875 361.686 380.788 368.294 380.788 379.867V417.48C380.788 422.651 382.02 426.832 384.354 429.875C387.248 432.638 391.375 434.131 396.64 434.131C407.806 434.131 413.893 427.523 413.893 415.95V378.336C413.893 373.166 412.66 368.984 410.326 365.942C407.432 363.179 403.306 361.686 398.04 361.686ZM403.922 418.19C403.922 423.36 401.644 425.32 398.04 425.32C395.856 425.32 394.157 424.592 393.167 422.875C391.636 421.848 390.758 419.87 390.758 416.659V377.608C390.758 372.438 393.036 370.478 396.64 370.478C398.825 370.478 400.524 371.206 401.513 372.923C403.044 373.95 403.922 375.928 403.922 379.139V418.19Z" fill="white"/>
<path d="M443.412 185.379C438.856 185.379 435.552 187.245 433.498 190.643L432.097 189.093L433.031 171.845H452.767V163.053H424.199L422.201 203.448H431.481V201.283C431.481 196.112 433.759 194.152 437.363 194.152C439.547 194.152 441.246 194.88 442.236 196.597C443.767 197.624 444.645 199.603 444.645 202.813V218.717C444.645 223.888 442.367 225.736 438.763 225.736C436.522 225.736 434.823 225.027 433.834 223.272C432.34 222.264 431.481 220.341 431.481 217.187V212.016H422.127V218.008C422.127 223.291 423.34 227.509 425.712 230.571C428.531 233.221 432.527 234.659 437.68 234.659C448.846 234.659 454.634 228.051 454.634 216.477V200.368C454.634 195.104 453.588 190.997 451.534 188.197C449.518 186.349 446.811 185.379 443.431 185.379H443.412Z" fill="white"/>
<path d="M398.04 162.232C386.875 162.232 380.788 168.84 380.788 180.413V218.008C380.788 223.179 382.02 227.36 384.354 230.403C387.248 233.165 391.375 234.659 396.64 234.659C407.806 234.659 413.893 228.051 413.893 216.477V178.864C413.893 173.693 412.66 169.512 410.326 166.469C407.432 163.707 403.306 162.213 398.04 162.213V162.232ZM403.922 218.736C403.922 223.907 401.644 225.867 398.04 225.867C395.856 225.867 394.157 225.139 393.167 223.421C391.636 222.395 390.758 220.416 390.758 217.205V178.155C390.758 172.984 393.036 171.024 396.64 171.024C398.825 171.024 400.524 171.752 401.513 173.469C403.044 174.496 403.922 176.475 403.922 179.685V218.736Z" fill="white"/>
<path d="M556.805 521.005C545.639 521.005 539.552 527.613 539.552 539.187V576.8C539.552 581.971 540.785 586.152 543.119 589.195C546.013 591.957 550.139 593.451 555.404 593.451C566.57 593.451 572.657 586.843 572.657 575.269V537.656C572.657 532.485 571.425 528.304 569.091 525.261C566.197 522.499 562.07 521.005 556.805 521.005ZM562.686 577.509C562.686 582.68 560.408 584.64 556.805 584.64C554.62 584.64 552.921 583.912 551.932 582.195C550.4 581.168 549.523 579.189 549.523 575.979V536.928C549.523 531.757 551.801 529.797 555.404 529.797C557.589 529.797 559.288 530.525 560.278 532.243C561.809 533.269 562.686 535.248 562.686 538.459V577.509Z" fill="white"/>
<path d="M591.366 582.288C589.2 569.576 613.884 561.419 613.884 537.656C613.884 532.373 612.67 528.155 610.299 525.093C607.479 522.443 603.484 521.005 598.33 521.005C587.165 521.005 581.376 527.613 581.376 539.187V544.675H590.731V536.928C590.731 531.757 593.009 529.797 596.612 529.797C598.722 529.797 600.365 530.395 601.374 532.187C602.979 533.251 603.894 535.472 603.894 539.616C603.894 560.485 581.376 563.995 581.376 585.275V592.611H612.838V583.819H592.747C592.654 583.296 591.347 582.269 591.347 582.269L591.366 582.288Z" fill="white"/>
<path d="M615.751 324.278H611.774L610.373 322.728V275.408H599.376L578.707 324.278V333.07H599.003L600.403 334.619V346.192H610.373V333.07H615.751V324.278ZM600.422 324.278H589.163L587.762 322.728L599.021 295.979L600.422 297.528V324.278Z" fill="white"/>
<path d="M556.805 274.587C545.639 274.587 539.552 281.195 539.552 292.768V330.382C539.552 335.552 540.785 339.734 543.119 342.776C546.013 345.539 550.139 347.032 555.404 347.032C566.57 347.032 572.657 340.424 572.657 328.851V291.238C572.657 286.067 571.425 281.886 569.091 278.843C566.197 276.08 562.07 274.587 556.805 274.587ZM562.686 331.091C562.686 336.262 560.408 338.222 556.805 338.222C554.62 338.222 552.921 337.494 551.932 335.776C550.4 334.75 549.523 332.771 549.523 329.56V290.51C549.523 285.339 551.801 283.379 555.404 283.379C557.589 283.379 559.288 284.107 560.278 285.824C561.809 286.851 562.686 288.83 562.686 292.04V331.091Z" fill="white"/>
<path d="M602.569 98.0374C597.509 98.0374 593.998 100.315 592.019 104.44L590.619 102.891V89.6748C590.619 82.7494 592.897 80.7894 596.93 80.7894C599.114 80.7894 600.814 81.5174 601.803 83.2348C603.334 84.2614 604.212 86.2401 604.212 89.4508V90.4961H613.566V88.6294C613.566 83.3468 612.353 79.1281 609.981 76.0668C607.162 73.4161 603.166 71.9788 598.013 71.9788C586.231 71.9788 580.648 78.5868 580.648 90.7761V127.755C580.648 132.925 581.881 137.107 584.215 140.149C587.109 142.912 591.235 144.405 596.5 144.405C607.666 144.405 613.753 137.797 613.753 126.224V113.008C613.753 107.744 612.707 103.637 610.653 100.837C608.637 98.9894 605.93 98.0188 602.55 98.0188L602.569 98.0374ZM603.801 128.52C603.801 133.691 601.523 135.539 597.901 135.539C595.679 135.539 593.961 134.829 592.972 133.075C591.478 132.067 590.619 130.144 590.619 126.989V113.979C590.619 108.808 592.897 106.848 596.5 106.848C598.685 106.848 600.384 107.576 601.374 109.293C602.905 110.32 603.782 112.299 603.782 115.509V128.52H603.801Z" fill="white"/>
<path d="M556.805 72.0161C545.639 72.0161 539.552 78.6241 539.552 90.1974V127.792C539.552 132.963 540.785 137.144 543.119 140.187C546.013 142.949 550.139 144.443 555.404 144.443C566.57 144.443 572.657 137.835 572.657 126.261V88.6668C572.657 83.4961 571.425 79.3148 569.091 76.2721C566.197 73.5094 562.07 72.0161 556.805 72.0161ZM562.686 128.52C562.686 133.691 560.408 135.651 556.805 135.651C554.62 135.651 552.921 134.923 551.932 133.205C550.4 132.179 549.523 130.2 549.523 126.989V87.9388C549.523 82.7681 551.801 80.8081 555.404 80.8081C557.589 80.8081 559.288 81.5361 560.278 83.2534C561.809 84.2801 562.686 86.2588 562.686 89.4694V128.52Z" fill="white"/>
<path d="M81.6882 349.646L103.702 292.507L132.699 287.243L133.558 285.003L102.507 290.043L78.7754 351.624L109.826 346.603L110.685 344.363L81.6882 349.646Z" fill="#F9CB91"/>
<path d="M157.327 298.854L158.186 296.614L133.558 285.003L132.699 287.243L157.327 298.854Z" fill="#F7B671"/>
<path d="M188.377 293.813L158.186 296.613L157.327 298.853L185.465 295.811L163.451 352.931L135.313 355.973L134.454 358.213L164.646 355.413L188.377 293.813Z" fill="#F9CB91"/>
<path d="M110.685 344.363L109.826 346.603L134.454 358.213L135.313 355.973L110.685 344.363Z" fill="#F7B671"/>
<path d="M110.685 344.363L135.313 355.974L157.327 298.854L132.699 287.243L110.685 344.363Z" fill="#FCE1A8"/>
<path d="M163.208 353.547L185.465 295.811L157.327 298.854L135.313 355.974L163.208 353.547Z" fill="#FFFBD7"/>
<path d="M103.926 291.928L81.9121 349.049L110.685 344.363L132.699 287.243L103.926 291.928Z" fill="#FFFBD7"/>
<path d="M100.416 333.125L103.198 325.901L117.911 322.989L118.695 320.955L103.982 323.867L110.144 307.851L125.958 304.715L126.743 302.661L110.946 305.797L116.006 292.675L113.859 293.085L108.799 306.227L100.285 307.907L99.5007 309.941L108.015 308.261L98.2871 333.536L89.7542 335.235L88.97 337.269L97.4842 335.589L99.6128 335.179L107.044 333.704L104.99 339.005L107.137 338.595L109.173 333.275L115.428 332.043L116.212 329.989L100.416 333.125Z" fill="#EABA7C"/>
<path d="M151.557 313.843L150.754 315.896L165.262 314.179L161.957 322.728L156.617 323.363L155.833 325.416L161.173 324.782L159.735 328.515L161.789 328.272L167.335 313.936L176.67 312.816L177.455 310.782L151.557 313.843Z" fill="#EABA7C"/>
<path d="M140.224 343.224L166.14 340.144L166.924 338.091L141.026 341.171L140.224 343.224Z" fill="#EABA7C"/>
<path d="M150.754 315.896L151.557 313.843L132.792 305.387L135.91 297.323L134.23 296.558L131.131 304.64L126.743 302.662L125.958 304.715L147.842 314.571L138.095 339.846L116.212 329.99L115.428 332.043L137.311 341.899L134.398 349.459L136.078 350.206L138.973 342.664L140.224 343.224L141.026 341.171L139.775 340.611L149.503 315.336L150.754 315.896Z" fill="#EABA7C"/>
<path d="M154.096 324.091C153.872 325.267 152.864 326.443 151.837 326.704C150.829 326.984 150.194 326.256 150.418 325.08C150.642 323.904 151.65 322.728 152.677 322.467C153.686 322.187 154.321 322.915 154.096 324.091Z" fill="#27AAE1"/>
<g style="mix-blend-mode:multiply">
<path d="M132.699 321.515L158.186 296.613L145.433 290.603L132.699 321.515Z" fill="#FFE5B8"/>
</g>
<path d="M122.542 278.413C122.542 272.813 127.079 268.259 132.699 268.259V262.323C123.811 262.323 116.623 269.528 116.623 278.395C116.623 287.261 132.699 321.477 132.699 321.477V288.531C127.097 288.531 122.542 283.995 122.542 278.395V278.413Z" fill="#FB8A6E"/>
<path d="M132.699 262.341V268.277C138.3 268.277 142.838 272.813 142.838 278.432C142.838 284.051 138.3 288.568 132.699 288.568V321.515C132.699 321.515 148.775 287.299 148.775 278.432C148.775 269.565 141.568 262.36 132.699 262.36V262.341Z" fill="#F76954"/>
<path d="M142.838 278.413C142.838 272.813 138.3 268.259 132.699 268.259V288.549C138.3 288.549 142.838 284.013 142.838 278.413Z" fill="#E7E8E8"/>
<path d="M122.542 278.413C122.542 284.013 127.079 288.549 132.699 288.549V268.259C127.097 268.259 122.542 272.795 122.542 278.413Z" fill="#F2F2F2"/>
<path d="M916.382 488.899L884.696 520.595C880.719 524.571 874.277 524.571 870.3 520.595L909.193 481.712L916.4 488.917L916.382 488.899Z" fill="#4287B5"/>
<path d="M909.174 481.693L870.282 520.576L870.132 520.426C866.155 516.45 866.155 510.01 870.132 506.034L901.818 474.338L909.156 481.674L909.174 481.693Z" fill="#3D7EA9"/>
<path d="M912.479 492.8C909.828 491.176 907.307 489.234 905.011 486.92C902.285 484.194 900.025 481.152 898.252 477.922L901.837 474.338L916.382 488.88L912.479 492.781V492.8Z" fill="#3474A3"/>
<path d="M908.073 483.84C923.608 499.371 948.795 499.371 964.33 483.84C979.865 468.309 979.865 443.128 964.33 427.597C948.795 412.067 923.608 412.067 908.073 427.597C892.538 443.128 892.538 468.309 908.073 483.84ZM915.392 434.915C926.894 423.416 945.509 423.416 957.011 434.915C968.513 446.413 968.513 465.024 957.011 476.523C945.509 488.021 926.894 488.021 915.392 476.523C903.89 465.024 903.89 446.413 915.392 434.915Z" fill="#E1E3E4"/>
<g style="mix-blend-mode:multiply">
<path d="M937.369 449.139C931.17 442.941 922.581 440.589 914.552 442.083C915.541 440.496 916.736 439.003 918.099 437.621C928.089 427.635 944.296 427.635 954.285 437.621C964.274 447.608 964.274 463.811 954.285 473.797C950.495 477.587 945.808 479.939 940.897 480.853C947.134 470.96 945.957 457.744 937.35 449.12L937.369 449.139Z" fill="#F1F2F2"/>
</g>
<path d="M788.911 0C767.196 0 749.589 13.5147 749.589 30.1653C749.589 39.7787 755.433 48.328 764.563 53.8533C762.155 58.464 757.561 66.1547 752.669 68.7307C752.669 68.7307 772.368 70.0373 782.6 59.9387C784.654 60.2 786.764 60.3307 788.93 60.3307C810.645 60.3307 828.252 46.816 828.252 30.1653C828.252 13.5147 810.626 0 788.911 0Z" fill="#3ABEEA"/>
<g style="mix-blend-mode:multiply">
<path d="M828.233 30.1654C828.233 18.5547 819.7 8.49337 807.172 3.45337C792.813 7.22404 782.469 17.6774 782.469 29.9787C782.469 42.28 793.093 53.0134 807.769 56.6534C819.962 51.52 828.215 41.5894 828.215 30.184L828.233 30.1654Z" fill="#D1D3D4"/>
</g>
<path d="M814.23 2.93066C830.623 2.93066 843.899 13.1227 843.899 25.6853C843.899 32.928 839.492 39.3867 832.603 43.5493C834.432 47.0213 837.887 52.8267 841.565 54.768C841.565 54.768 826.702 55.7573 818.991 48.1413C817.441 48.328 815.835 48.44 814.211 48.44C797.817 48.44 784.542 38.248 784.542 25.6853C784.542 13.1227 797.817 2.93066 814.211 2.93066H814.23Z" fill="#DEECE9"/>
<path d="M801.103 29.8294C803.455 29.8294 805.361 27.9239 805.361 25.5734C805.361 23.2229 803.455 21.3174 801.103 21.3174C798.752 21.3174 796.846 23.2229 796.846 25.5734C796.846 27.9239 798.752 29.8294 801.103 29.8294Z" fill="#79AFD7"/>
<path d="M801.103 29.1762C803.403 29.1762 805.267 27.3125 805.267 25.0135C805.267 22.7145 803.403 20.8508 801.103 20.8508C798.804 20.8508 796.94 22.7145 796.94 25.0135C796.94 27.3125 798.804 29.1762 801.103 29.1762Z" fill="white"/>
<path d="M801.103 28.6161C803.403 28.6161 805.267 26.7524 805.267 24.4534C805.267 22.1545 803.403 20.2908 801.103 20.2908C798.804 20.2908 796.94 22.1545 796.94 24.4534C796.94 26.7524 798.804 28.6161 801.103 28.6161Z" fill="#27AAE1"/>
<path d="M815.369 29.8294C817.72 29.8294 819.626 27.9239 819.626 25.5734C819.626 23.2229 817.72 21.3174 815.369 21.3174C813.017 21.3174 811.111 23.2229 811.111 25.5734C811.111 27.9239 813.017 29.8294 815.369 29.8294Z" fill="#79AFD7"/>
<path d="M819.532 25.0135C819.532 27.3095 817.665 29.1762 815.369 29.1762C813.072 29.1762 811.205 27.3095 811.205 25.0135C811.205 22.7175 813.072 20.8508 815.369 20.8508C817.665 20.8508 819.532 22.7175 819.532 25.0135Z" fill="white"/>
<path d="M819.532 24.4534C819.532 26.7494 817.665 28.6161 815.369 28.6161C813.072 28.6161 811.205 26.7494 811.205 24.4534C811.205 22.1574 813.072 20.2908 815.369 20.2908C817.665 20.2908 819.532 22.1574 819.532 24.4534Z" fill="#27AAE1"/>
<path d="M833.909 25.5734C833.909 27.9254 832.005 29.8294 829.652 29.8294C827.3 29.8294 825.395 27.9254 825.395 25.5734C825.395 23.2214 827.3 21.3174 829.652 21.3174C832.005 21.3174 833.909 23.2214 833.909 25.5734Z" fill="#79AFD7"/>
<path d="M833.816 25.0135C833.816 27.3095 831.949 29.1762 829.652 29.1762C827.356 29.1762 825.489 27.3095 825.489 25.0135C825.489 22.7175 827.356 20.8508 829.652 20.8508C831.949 20.8508 833.816 22.7175 833.816 25.0135Z" fill="white"/>
<path d="M833.816 24.4534C833.816 26.7494 831.949 28.6161 829.652 28.6161C827.356 28.6161 825.489 26.7494 825.489 24.4534C825.489 22.1574 827.356 20.2908 829.652 20.2908C831.949 20.2908 833.816 22.1574 833.816 24.4534Z" fill="#27AAE1"/>
<g style="mix-blend-mode:multiply">
<path d="M867.873 294.168V278.189C867.873 245.355 841.247 218.736 808.404 218.736H798.284L783.085 233.931L855.606 306.432L867.873 294.168Z" fill="#E6E7E8"/>
</g>
<path d="M697.103 719.563V736.68C695.983 736.437 694.601 736.512 693.107 736.923C689.41 737.968 686.404 740.843 686.404 743.325C686.404 745.808 689.41 746.965 693.107 745.92C696.804 744.875 699.754 742 699.754 739.517V723.483L715.812 717.36V729.083C714.691 728.821 713.272 728.896 711.76 729.325C708.063 730.371 705.057 733.245 705.057 735.728C705.057 738.211 708.063 739.368 711.76 738.323C715.457 737.277 718.463 734.403 718.463 731.92V711.405L697.103 719.563Z" fill="#EF4136"/>
<path d="M732.952 726.955L734.614 732.07L736.425 737.632C735.678 737.707 734.819 738.024 733.979 738.603C731.888 740.003 730.581 742.411 731.085 743.96C731.589 745.51 733.699 745.622 735.79 744.222C737.881 742.822 739.151 740.432 738.647 738.883C738.61 738.771 735.398 728.878 735.398 728.878L744.174 721.803L746.545 729.12C745.798 729.195 744.921 729.512 744.062 730.091C741.971 731.491 740.664 733.899 741.168 735.448C741.672 736.998 743.782 737.11 745.873 735.71C747.964 734.31 749.271 731.902 748.767 730.352C748.748 730.296 744.603 717.547 744.603 717.547L732.915 726.974L732.952 726.955Z" fill="#231F20"/>
<path d="M595.713 732.015L553.141 733.784L554.076 756.258L596.648 754.489L595.713 732.015Z" fill="#F15A29"/>
<path d="M667.378 725.648L672.4 730.52C677.218 735.205 677.535 742.859 673.129 747.936L668.535 753.219L667.396 725.648H667.378Z" fill="#C2B59B"/>
<path d="M659.722 783.739L605.911 768.413L603.708 715.661L656.063 695.931C661.048 694.045 666.407 697.592 666.631 702.912L669.674 775.88C669.898 781.2 664.838 785.176 659.722 783.72V783.739Z" fill="#F15A29"/>
<path d="M603.988 722.213L559.008 728.467L560.352 760.835L566.701 761.208L576.036 789.115L590.675 788.499L586.81 776.963C591.982 775.003 595.567 769.888 595.324 764.045C595.324 763.653 595.268 763.28 595.231 762.907L605.687 763.541L603.969 722.195L603.988 722.213ZM591.44 764.232C591.608 768.283 589.144 771.848 585.578 773.267L581.862 762.123L591.254 762.683C591.366 763.187 591.422 763.691 591.44 764.232Z" fill="#C2B59B"/>
<path d="M550.008 752.267L554.097 756.243L553.164 733.768L549.411 738.08C545.807 742.224 546.069 748.459 550.008 752.267Z" fill="#C2B59B"/>
<g style="mix-blend-mode:multiply">
<path d="M559.008 728.448L605.705 763.56L603.988 722.213L559.008 728.448Z" fill="#D1D3D4"/>
</g>
<path d="M91.8641 593.115V517.011C91.8641 508.723 85.1423 501.984 76.8335 501.984H15.0306C6.74044 501.984 0 508.704 0 517.011V599.891C0 608.179 6.72176 614.917 15.0306 614.917H70.0557L91.8641 593.115Z" fill="#00AEEF"/>
<path d="M91.8641 593.115H70.0557V614.917L91.8641 593.115Z" fill="#8CBCFF"/>
<path d="M70.0557 593.115L51.8696 614.917H70.0557V593.115Z" fill="#00A0DB"/>
<path d="M76.6469 524.533H15.1987V530.712H76.6469V524.533Z" fill="white"/>
<path d="M76.6469 536.723H15.1987V542.901H76.6469V536.723Z" fill="white"/>
<path d="M76.6469 548.893H15.1987V555.072H76.6469V548.893Z" fill="white"/>
<path d="M76.6469 561.083H15.1987V567.261H76.6469V561.083Z" fill="white"/>
<path d="M76.6469 573.272H15.1987V579.451H76.6469V573.272Z" fill="white"/>
<path d="M54.8945 585.442H15.1987V591.621H54.8945V585.442Z" fill="white"/>
<path d="M495.581 822.826C495.581 822.826 495.525 820.53 495.637 816.237C495.749 811.944 496.01 805.653 496.72 797.664C497.429 789.693 498.605 780.005 500.678 769.048C502.769 758.09 505.719 745.789 510.443 732.872C515.167 719.992 521.683 706.365 531.449 693.914C536.341 687.736 542.054 681.856 548.72 676.89C555.367 671.944 562.892 667.725 571.144 665.168C579.36 662.536 587.949 660.8 596.687 659.4C605.425 658.018 614.313 656.973 623.294 656.152C641.256 654.509 659.554 653.65 677.834 653.072C714.43 652.045 751.045 652.213 785.345 652.381C802.504 652.493 819.084 652.586 834.806 652.68C842.666 652.698 850.322 652.736 857.716 652.754C861.413 652.792 865.054 652.754 868.564 652.4C872.093 652.026 875.528 651.392 878.833 650.552C892.09 647.154 902.938 640.005 910.687 632.146C918.473 624.213 923.309 615.589 926.091 608.16C928.892 600.693 929.881 594.44 930.273 590.202C930.46 588.074 930.553 586.45 930.553 585.33C930.591 584.229 930.591 583.65 930.591 583.65H931.226C931.226 583.65 931.226 584.229 931.263 585.33C931.319 586.45 931.3 588.093 931.207 590.258C930.983 594.552 930.348 600.992 927.697 608.72C925.083 616.429 920.415 625.482 912.61 633.976C908.708 638.213 904.002 642.245 898.532 645.792C893.042 649.32 886.713 652.157 879.804 654.117C876.331 655.069 872.728 655.816 869.012 656.282C867.126 656.469 865.11 656.693 863.354 656.73L861.991 656.786L860.535 656.824C859.62 656.824 858.705 656.861 857.772 656.88C850.378 657.01 842.722 657.141 834.843 657.272C819.103 657.514 802.523 657.813 785.382 657.832C768.242 657.962 750.541 658.112 732.541 658.242C714.561 658.392 696.3 658.672 678.077 659.269C659.853 659.773 641.667 660.557 623.892 662.088C615.004 662.872 606.228 663.824 597.658 665.074C589.106 666.344 580.704 667.949 572.9 670.357C570.958 670.954 569.035 671.626 567.261 672.336L565.954 672.858L564.516 673.512C563.694 673.866 562.761 674.389 561.902 674.818C558.392 676.648 555.05 678.72 551.875 680.978C545.508 685.496 539.982 690.946 535.164 696.752C525.548 708.437 518.901 721.578 513.991 734.104C511.526 740.376 509.566 746.554 507.792 752.472C506.018 758.389 504.562 764.082 503.348 769.477C500.921 780.266 499.446 789.842 498.456 797.757C497.504 805.672 496.888 811.925 496.608 816.2C496.309 820.474 496.253 822.752 496.253 822.752H495.618L495.581 822.826Z" fill="url(#paint12_linear_59_20)"/>
<defs>
<linearGradient id="paint0_linear_59_20" x1="195.049" y1="253.58" x2="495.886" y2="253.58" gradientUnits="userSpaceOnUse">
<stop offset="0.74" stop-color="#001927"/>
<stop offset="0.79" stop-color="#001927"/>
<stop offset="0.86" stop-color="#1660A6"/>
<stop offset="0.94" stop-color="#093C59"/>
<stop offset="0.997379" stop-color="#001927"/>
</linearGradient>
<linearGradient id="paint1_linear_59_20" x1="192.989" y1="298.853" x2="498.064" y2="298.853" gradientUnits="userSpaceOnUse">
<stop stop-color="#BC5EBC"/>
<stop offset="0.11" stop-color="#F0BEFC"/>
<stop offset="0.14" stop-color="#E5A3F2"/>
<stop offset="0.18" stop-color="#D781E5"/>
<stop offset="0.21" stop-color="#D275E1"/>
<stop offset="0.37" stop-color="#F1BFFD"/>
<stop offset="0.42" stop-color="#E19EEA"/>
<stop offset="0.48" stop-color="#CD77D4"/>
<stop offset="0.51" stop-color="#C668CC"/>
<stop offset="0.55" stop-color="#D17FD8"/>
<stop offset="0.65" stop-color="#EDB9F9"/>
<stop offset="0.66" stop-color="#E7AEF3"/>
<stop offset="0.76" stop-color="#D181D9"/>
<stop offset="0.8" stop-color="#C970D0"/>
<stop offset="0.82" stop-color="#CD79D5"/>
<stop offset="0.94" stop-color="#E8AFF3"/>
<stop offset="1" stop-color="#F3C4FF"/>
</linearGradient>
<linearGradient id="paint2_linear_59_20" x1="123.923" y1="468.329" x2="495.898" y2="468.329" gradientUnits="userSpaceOnUse">
<stop stop-color="#1C75BC"/>
<stop offset="0.02" stop-color="#1D7BC0"/>
<stop offset="0.14" stop-color="#249DD8"/>
<stop offset="0.21" stop-color="#27AAE1"/>
</linearGradient>
<linearGradient id="paint3_linear_59_20" x1="121.496" y1="520.781" x2="498.512" y2="520.781" gradientUnits="userSpaceOnUse">
<stop stop-color="#BC4B5E"/>
<stop offset="0.11" stop-color="#FCA5C4"/>
<stop offset="0.14" stop-color="#F28DAF"/>
<stop offset="0.18" stop-color="#E56B92"/>
<stop offset="0.21" stop-color="#E15F87"/>
<stop offset="0.37" stop-color="#FDA6C5"/>
<stop offset="0.42" stop-color="#EB88A6"/>
<stop offset="0.48" stop-color="#D4627F"/>
<stop offset="0.51" stop-color="#CC5470"/>
<stop offset="0.55" stop-color="#D86885"/>
<stop offset="0.65" stop-color="#F9A0BF"/>
<stop offset="0.66" stop-color="#F397B5"/>
<stop offset="0.76" stop-color="#D96B88"/>
<stop offset="0.8" stop-color="#D05B77"/>
<stop offset="0.82" stop-color="#D4637F"/>
<stop offset="0.94" stop-color="#F396B5"/>
<stop offset="1" stop-color="#FFABCA"/>
</linearGradient>
<linearGradient id="paint4_linear_59_20" x1="495.898" y1="638.307" x2="930.908" y2="638.307" gradientUnits="userSpaceOnUse">
<stop stop-color="#1C75BC"/>
<stop offset="0.02" stop-color="#1D7BC0"/>
<stop offset="0.14" stop-color="#249DD8"/>
<stop offset="0.21" stop-color="#27AAE1"/>
</linearGradient>
<linearGradient id="paint5_linear_59_20" x1="495.898" y1="163.121" x2="796.734" y2="163.121" gradientUnits="userSpaceOnUse">
<stop stop-color="#1C75BC"/>
<stop offset="0.02" stop-color="#1D7BC0"/>
<stop offset="0.14" stop-color="#249DD8"/>
<stop offset="0.21" stop-color="#27AAE1"/>
</linearGradient>
<linearGradient id="paint6_linear_59_20" x1="39.9757" y1="728.765" x2="495.898" y2="728.765" gradientUnits="userSpaceOnUse">
<stop offset="0.74" stop-color="#001927"/>
<stop offset="0.79" stop-color="#001927"/>
<stop offset="0.86" stop-color="#1660A6"/>
<stop offset="0.94" stop-color="#093C59"/>
<stop offset="0.997379" stop-color="#001927"/>
</linearGradient>
<linearGradient id="paint7_linear_59_20" x1="36.8576" y1="796.413" x2="499.035" y2="796.413" gradientUnits="userSpaceOnUse">
<stop stop-color="#1C75BC"/>
<stop offset="0.11" stop-color="#66D8FC"/>
<stop offset="0.13" stop-color="#55CBF4"/>
<stop offset="0.18" stop-color="#33B3E6"/>
<stop offset="0.21" stop-color="#27AAE1"/>
<stop offset="0.37" stop-color="#67D9FD"/>
<stop offset="0.41" stop-color="#52C2EE"/>
<stop offset="0.48" stop-color="#2E9BD5"/>
<stop offset="0.51" stop-color="#218CCC"/>
<stop offset="0.54" stop-color="#2C99D4"/>
<stop offset="0.65" stop-color="#5FD0F7"/>
<stop offset="0.75" stop-color="#36A3DB"/>
<stop offset="0.8" stop-color="#2792D0"/>
<stop offset="0.81" stop-color="#2792D0"/>
<stop offset="0.94" stop-color="#58C8F1"/>
<stop offset="1" stop-color="#6BDDFF"/>
</linearGradient>
<linearGradient id="paint8_linear_59_20" x1="518.36" y1="315.56" x2="753.448" y2="80.4103" gradientUnits="userSpaceOnUse">
<stop stop-color="#BCB81C"/>
<stop offset="0.11" stop-color="#FCF066"/>
<stop offset="0.13" stop-color="#F4E855"/>
<stop offset="0.18" stop-color="#E6DA33"/>
<stop offset="0.21" stop-color="#E1D527"/>
<stop offset="0.37" stop-color="#FDF167"/>
<stop offset="0.4" stop-color="#F2E757"/>
<stop offset="0.47" stop-color="#D6CD30"/>
<stop offset="0.51" stop-color="#CCC421"/>
<stop offset="0.53" stop-color="#D0C828"/>
<stop offset="0.65" stop-color="#F9ED62"/>
<stop offset="0.75" stop-color="#DCD238"/>
<stop offset="0.8" stop-color="#D0C827"/>
<stop offset="0.93" stop-color="#F0E556"/>
<stop offset="1" stop-color="#FFF36B"/>
</linearGradient>
<linearGradient id="paint9_linear_59_20" x1="495.883" y1="377.871" x2="867.858" y2="377.871" gradientUnits="userSpaceOnUse">
<stop offset="0.74" stop-color="#001927"/>
<stop offset="0.79" stop-color="#001927"/>
<stop offset="0.86" stop-color="#1660A6"/>
<stop offset="0.94" stop-color="#093C59"/>
<stop offset="0.997379" stop-color="#001927"/>
</linearGradient>
<linearGradient id="paint10_linear_59_20" x1="523.028" y1="565.693" x2="813.892" y2="274.753" gradientUnits="userSpaceOnUse">
<stop stop-color="#62BC1C"/>
<stop offset="0.11" stop-color="#C1FC66"/>
<stop offset="0.13" stop-color="#B3F455"/>
<stop offset="0.18" stop-color="#99E633"/>
<stop offset="0.21" stop-color="#8FE127"/>
<stop offset="0.37" stop-color="#C2FD67"/>
<stop offset="0.41" stop-color="#ACEF53"/>
<stop offset="0.48" stop-color="#85D52E"/>
<stop offset="0.51" stop-color="#76CC21"/>
<stop offset="0.53" stop-color="#82D32C"/>
<stop offset="0.65" stop-color="#BAF860"/>
<stop offset="0.75" stop-color="#8DDB37"/>
<stop offset="0.8" stop-color="#7CD027"/>
<stop offset="0.94" stop-color="#B1F157"/>
<stop offset="1" stop-color="#C6FF6B"/>
</linearGradient>
<radialGradient id="paint11_radial_59_20" cx="0" cy="0" r="1" gradientUnits="userSpaceOnUse" gradientTransform="translate(493.17 923.097) scale(452.119 52.1539)">
<stop stop-color="#808285"/>
<stop offset="1" stop-color="white"/>
</radialGradient>
<linearGradient id="paint12_linear_59_20" x1="527.677" y1="857.789" x2="867.858" y2="517.518" gradientUnits="userSpaceOnUse">
<stop stop-color="#1C75BC"/>
<stop offset="0.11" stop-color="#66D8FC"/>
<stop offset="0.13" stop-color="#55CBF4"/>
<stop offset="0.18" stop-color="#33B3E6"/>
<stop offset="0.21" stop-color="#27AAE1"/>
<stop offset="0.37" stop-color="#67D9FD"/>
<stop offset="0.41" stop-color="#52C2EE"/>
<stop offset="0.48" stop-color="#2E9BD5"/>
<stop offset="0.51" stop-color="#218CCC"/>
<stop offset="0.54" stop-color="#2C99D4"/>
<stop offset="0.65" stop-color="#5FD0F7"/>
<stop offset="0.75" stop-color="#36A3DB"/>
<stop offset="0.8" stop-color="#2792D0"/>
<stop offset="0.81" stop-color="#2792D0"/>
<stop offset="0.94" stop-color="#58C8F1"/>
<stop offset="1" stop-color="#6BDDFF"/>
</linearGradient>
</defs>
</svg>
