<svg width="243" height="233" viewBox="0 0 243 233" fill="none" xmlns="http://www.w3.org/2000/svg">
<g clip-path="url(#clip0_34_1954)">
<path d="M152.258 4.06614C145.908 -0.49039 137.541 -1.26175 130.467 1.97796C95.9642 17.7963 -17.9174 73.6207 6.07367 110.938C34.2705 154.795 134.275 223.981 170.971 220.686C207.668 217.385 249.239 156.04 239.899 115.66C232.052 81.731 179.278 23.4603 152.258 4.07716V4.06614Z" fill="#3A8D97" fill-opacity="0.1"/>
<path d="M184.236 118.47C185.081 120.486 188.707 123.787 188.707 123.787C188.745 123.82 190.166 120.745 190.232 120.541C191.011 118.178 191.116 113.147 188.856 111.511C187.225 110.332 185.042 111.004 184.07 112.674C183.075 114.376 183.517 116.756 184.236 118.475V118.47Z" fill="#263238"/>
<path d="M242.265 150.707C240.463 148.575 235.44 149.049 233.13 149.991C232.931 150.073 229.952 151.704 229.99 151.743C229.99 151.743 230.024 151.776 230.035 151.781C229.239 151.848 228.393 151.93 227.465 152.04C225.757 152.255 223.828 152.514 221.745 152.933C219.667 153.346 217.417 153.859 215.096 154.608C212.769 155.357 210.36 156.261 208 157.517C207.972 157.534 207.945 157.55 207.923 157.561C208.497 156.983 210.056 155.302 210.161 155.164C211.642 153.159 213.317 148.415 211.675 146.156C210.498 144.525 208.21 144.492 206.768 145.77C205.292 147.076 204.966 149.478 205.11 151.335C205.275 153.423 207.486 157.401 207.663 157.721C205.425 158.933 203.231 160.366 201.086 161.93C199.859 162.823 198.654 163.765 197.455 164.718C197.936 164.2 198.367 163.732 198.417 163.66C199.898 161.655 201.573 156.911 199.931 154.652C198.754 153.021 196.466 152.988 195.023 154.266C193.548 155.572 193.216 157.974 193.366 159.831C193.515 161.71 195.333 165.142 195.825 166.041C195.366 166.41 194.907 166.779 194.454 167.154C192.271 168.944 190.105 170.74 187.922 172.443C187.154 173.043 186.374 173.605 185.595 174.167C186.021 173.705 186.38 173.313 186.43 173.253C187.911 171.247 189.585 166.503 187.944 164.244C186.761 162.614 184.479 162.58 183.031 163.859C181.555 165.164 181.229 167.567 181.373 169.424C181.516 171.22 183.163 174.399 183.744 175.473C182.931 176.03 182.119 176.586 181.301 177.088C180.737 177.418 180.218 177.771 179.632 178.074C179.063 178.382 178.493 178.685 177.935 178.988C176.835 179.528 175.702 180.096 174.614 180.603C173.862 180.961 173.133 181.28 172.403 181.611C173.177 181.021 174.663 179.842 174.774 179.732C175.946 178.564 177.383 176.211 177.847 174.041C178.024 173.87 178.178 173.683 178.317 173.484C179.411 171.897 179.096 169.638 177.333 168.674C174.884 167.33 170.364 169.572 168.551 171.28C168.446 171.379 167.407 172.603 166.76 173.385C167.07 172.867 167.374 172.371 167.683 171.831C168.302 170.773 168.894 169.705 169.529 168.547C169.817 167.98 170.109 167.407 170.402 166.828C170.706 166.261 170.955 165.622 171.237 165.016C171.861 163.594 172.42 162.123 172.956 160.63C173.884 161.17 177.211 163.038 179.074 163.242C180.931 163.44 183.346 163.187 184.7 161.754C186.026 160.349 186.054 158.074 184.457 156.85C182.24 155.153 177.432 156.685 175.382 158.101C175.255 158.189 173.895 159.368 173.16 160.035C173.475 159.137 173.79 158.239 174.078 157.319C174.907 154.657 175.664 151.941 176.432 149.236C176.664 148.404 176.913 147.583 177.15 146.757C177.482 146.955 181.389 149.258 183.473 149.484C185.324 149.682 187.745 149.429 189.099 147.996C190.425 146.591 190.453 144.316 188.856 143.093C186.64 141.396 181.831 142.927 179.781 144.343C179.626 144.448 177.675 146.151 177.195 146.608C177.725 144.79 178.272 142.982 178.886 141.225C179.726 138.795 180.687 136.459 181.782 134.266C181.936 134.36 186.004 136.784 188.137 137.015C189.994 137.214 192.409 136.96 193.763 135.528C195.09 134.123 195.117 131.847 193.52 130.624C191.304 128.927 186.496 130.459 184.446 131.875C184.285 131.985 182.185 133.82 181.826 134.178C181.892 134.046 181.942 133.902 182.008 133.776C183.208 131.445 184.667 129.34 186.126 127.434C186.971 126.327 187.844 125.313 188.712 124.349C189.425 124.878 192.702 127.263 194.598 127.682C196.422 128.084 198.853 128.095 200.351 126.817C201.821 125.566 202.103 123.307 200.65 121.919C198.632 119.99 193.686 120.982 191.492 122.167C191.37 122.233 190.232 123.021 189.408 123.605C189.806 123.175 190.21 122.723 190.602 122.321C192.067 120.8 193.498 119.495 194.78 118.354C195.515 117.709 196.19 117.142 196.825 116.618C197.792 116.773 201.711 117.357 203.557 116.866C205.358 116.387 207.519 115.28 208.265 113.456C208.995 111.671 208.199 109.533 206.265 108.971C203.579 108.183 199.655 111.34 198.251 113.401C198.129 113.577 196.554 116.58 196.604 116.585C196.604 116.585 196.654 116.591 196.665 116.596C196.04 117.087 195.377 117.627 194.664 118.227C193.354 119.346 191.89 120.624 190.387 122.117C188.883 123.61 187.286 125.269 185.766 127.175C184.241 129.081 182.732 131.159 181.456 133.506C181.439 133.533 181.428 133.561 181.417 133.588C181.577 132.789 181.948 130.53 181.953 130.354C182.075 127.869 180.848 122.993 178.234 122.007C176.349 121.296 174.42 122.525 173.923 124.387C173.414 126.288 174.47 128.475 175.62 129.935C176.913 131.588 180.958 133.688 181.284 133.853C180.091 136.095 179.046 138.498 178.129 140.982C177.598 142.404 177.112 143.847 176.642 145.308C176.758 144.608 176.857 143.985 176.857 143.897C176.979 141.412 175.752 136.536 173.138 135.55C171.253 134.839 169.325 136.068 168.827 137.93C168.319 139.831 169.374 142.018 170.524 143.484C171.69 144.971 175.1 146.828 176.012 147.313C175.835 147.875 175.658 148.432 175.487 148.994C174.658 151.688 173.845 154.382 172.967 156.994C172.657 157.914 172.32 158.812 171.983 159.71C172.082 159.093 172.165 158.569 172.171 158.487C172.292 156.002 171.066 151.126 168.451 150.14C166.567 149.429 164.638 150.657 164.141 152.52C163.632 154.421 164.688 156.608 165.837 158.074C166.948 159.495 170.082 161.236 171.16 161.815C170.789 162.724 170.419 163.638 170.016 164.503C169.728 165.087 169.491 165.671 169.17 166.239C168.866 166.812 168.562 167.379 168.258 167.936C167.639 168.994 167.009 170.09 166.379 171.109C165.948 171.82 165.522 172.492 165.097 173.165C165.417 172.25 166.003 170.448 166.036 170.289C166.534 167.848 166.064 162.845 163.627 161.473C161.869 160.487 159.78 161.407 159.006 163.175C158.216 164.977 158.924 167.297 159.841 168.917C160.847 170.702 164.367 173.302 164.809 173.622C164.102 174.735 163.4 175.815 162.72 176.823C162.378 177.335 162.046 177.826 161.715 178.305L162.914 179.561C163.301 178.972 163.699 178.36 164.108 177.721C164.832 176.592 165.583 175.368 166.346 174.107C166.672 174.239 168.529 174.977 170.353 175.446C170.314 177.55 171.718 181.38 171.9 181.875C170.69 182.415 169.513 182.933 168.391 183.396C168.076 183.528 167.545 183.666 166.976 183.804L168.253 185.143C168.59 185.066 168.883 184.988 169.048 184.917C170.281 184.371 171.58 183.765 172.911 183.132C173.215 183.572 175.725 187.165 177.488 188.223C179.085 189.181 181.389 189.953 183.224 189.22C185.015 188.498 185.999 186.443 185.065 184.663C183.766 182.195 178.759 181.578 176.299 182.008C176.156 182.03 174.608 182.482 173.641 182.779C174.183 182.515 174.713 182.267 175.271 181.991C176.377 181.451 177.46 180.878 178.626 180.272C179.179 179.958 179.742 179.638 180.306 179.319C180.875 179.01 181.434 178.619 182.003 178.267C183.307 177.424 184.589 176.509 185.866 175.556C186.341 176.514 188.082 179.908 189.524 181.099C190.961 182.283 193.117 183.402 195.04 182.95C196.919 182.509 198.207 180.625 197.549 178.724C196.637 176.09 191.785 174.724 189.287 174.773C189.132 174.773 187.341 175.016 186.363 175.165C187.12 174.586 187.883 174.013 188.635 173.402C190.801 171.638 192.934 169.787 195.073 167.952C195.725 167.39 196.389 166.834 197.046 166.283C197.212 166.625 199.196 170.702 200.81 172.035C202.247 173.225 204.402 174.338 206.325 173.886C208.204 173.446 209.492 171.561 208.835 169.66C207.923 167.027 203.07 165.66 200.572 165.71C200.384 165.71 197.814 166.057 197.162 166.178C198.61 164.955 200.069 163.749 201.55 162.619C203.595 161.054 205.69 159.633 207.818 158.404C207.895 158.564 209.945 162.823 211.598 164.195C213.035 165.379 215.196 166.498 217.113 166.046C218.992 165.605 220.28 163.721 219.622 161.82C218.711 159.186 213.858 157.82 211.36 157.87C211.167 157.87 208.398 158.244 207.901 158.349C208.028 158.277 208.149 158.189 208.276 158.118C210.564 156.834 212.946 155.881 215.218 155.093C216.539 154.635 217.826 154.266 219.086 153.941C219.385 154.773 220.8 158.564 222.154 159.958C223.452 161.297 225.475 162.641 227.432 162.404C229.349 162.173 230.836 160.443 230.394 158.481C229.78 155.759 225.105 153.875 222.618 153.649C222.485 153.638 221.093 153.666 220.081 153.699C220.65 153.561 221.236 153.407 221.789 153.286C223.85 152.823 225.768 152.525 227.47 152.272C228.437 152.14 229.316 152.035 230.14 151.947C230.864 152.608 233.804 155.247 235.617 155.853C237.385 156.443 239.8 156.707 241.431 155.6C243.028 154.509 243.542 152.294 242.243 150.757L242.265 150.707Z" fill="#E9873B"/>
<path d="M219.385 153.44C219.396 153.489 222.286 151.704 222.452 151.572C224.409 150.024 227.282 145.892 226.299 143.28C225.591 141.401 223.397 140.762 221.667 141.616C219.899 142.487 218.943 144.718 218.595 146.547C218.186 148.69 219.385 153.44 219.385 153.44Z" fill="#263238"/>
<path d="M58.7645 118.47C57.919 120.486 54.2935 123.787 54.2935 123.787C54.2548 123.82 52.8345 120.745 52.7682 120.541C51.9889 118.178 51.8839 113.147 54.1443 111.511C55.7746 110.332 57.9577 111.004 58.9303 112.674C59.9251 114.376 59.483 116.756 58.7645 118.475V118.47Z" fill="#263238"/>
<path d="M0.735056 150.707C2.53673 148.575 7.56043 149.049 9.87056 149.991C10.0695 150.073 13.0484 151.704 13.0097 151.743C13.0097 151.743 12.9765 151.776 12.9655 151.781C13.7613 151.848 14.6069 151.93 15.5353 152.04C17.2431 152.255 19.1719 152.514 21.2554 152.933C23.3389 153.346 25.5827 153.859 27.9039 154.608C30.2306 155.357 32.6402 156.261 35.0001 157.517C35.0277 157.534 35.0554 157.55 35.0775 157.561C34.5027 156.983 32.9442 155.302 32.8392 155.164C31.3581 153.159 29.6835 148.415 31.3249 146.156C32.5021 144.525 34.7901 144.492 36.2325 145.77C37.7081 147.076 38.0342 149.478 37.8905 151.335C37.7247 153.423 35.5141 157.401 35.3372 157.721C37.5755 158.933 39.7696 160.366 41.9139 161.93C43.1408 162.823 44.3456 163.765 45.5449 164.718C45.0641 164.2 44.633 163.732 44.5833 163.66C43.1021 161.655 41.4276 156.911 43.069 154.652C44.2461 153.021 46.5342 152.988 47.9766 154.266C49.4522 155.572 49.7838 157.974 49.6346 159.831C49.4854 161.71 47.6671 165.142 47.1753 166.041C47.634 166.41 48.0927 166.779 48.5459 167.154C50.7289 168.944 52.8953 170.74 55.0783 172.443C55.8465 173.043 56.6258 173.605 57.405 174.167C56.9795 173.705 56.6203 173.313 56.5705 173.253C55.0894 171.247 53.4148 166.503 55.0562 164.244C56.2389 162.614 58.5214 162.58 59.9694 163.859C61.445 165.164 61.7711 167.567 61.6274 169.424C61.4837 171.22 59.8367 174.399 59.2565 175.473C60.0689 176.03 60.8813 176.586 61.6992 177.088C62.2629 177.418 62.7824 177.771 63.3683 178.074C63.9375 178.382 64.5067 178.685 65.0649 178.988C66.1647 179.528 67.2977 180.096 68.3864 180.603C69.138 180.961 69.8676 181.28 70.5971 181.611C69.8233 181.021 68.3367 179.842 68.2262 179.732C67.0545 178.564 65.6176 176.211 65.1534 174.041C64.9765 173.87 64.8218 173.683 64.6836 173.484C63.5893 171.897 63.9043 169.638 65.6673 168.674C68.1156 167.33 72.6364 169.572 74.4491 171.28C74.5541 171.379 75.5931 172.603 76.2398 173.385C75.9303 172.867 75.6263 172.371 75.3168 171.831C74.6978 170.773 74.1065 169.705 73.4709 168.547C73.1835 167.98 72.8906 167.407 72.5977 166.828C72.2937 166.261 72.0451 165.622 71.7632 165.016C71.1387 163.594 70.5805 162.123 70.0444 160.63C69.1159 161.17 65.7889 163.038 63.9264 163.242C62.0695 163.44 59.6544 163.187 58.3003 161.754C56.974 160.349 56.9463 158.074 58.5435 156.85C60.7597 155.153 65.5678 156.685 67.6182 158.101C67.7453 158.189 69.1049 159.368 69.8399 160.035C69.5249 159.137 69.2099 158.239 68.9225 157.319C68.0935 154.657 67.3364 151.941 66.5682 149.236C66.3361 148.404 66.0874 147.583 65.8497 146.757C65.5181 146.955 61.6108 149.258 59.5273 149.484C57.6758 149.682 55.2552 149.429 53.9011 147.996C52.5748 146.591 52.5471 144.316 54.1443 143.093C56.3605 141.396 61.1687 142.927 63.219 144.343C63.3738 144.448 65.3302 146.151 65.8055 146.608C65.2749 144.79 64.7278 142.982 64.1143 141.225C63.2743 138.795 62.3127 136.459 61.2184 134.266C61.0637 134.36 56.9961 136.784 54.8628 137.015C53.0058 137.214 50.5907 136.96 49.2367 135.528C47.9103 134.123 47.8827 131.847 49.4799 130.624C51.696 128.927 56.5042 130.459 58.5546 131.875C58.7148 131.985 60.815 133.82 61.1742 134.178C61.1079 134.046 61.0581 133.902 60.9918 133.776C59.7925 131.445 58.3335 129.34 56.8745 127.434C56.0289 126.327 55.1557 125.313 54.288 124.349C53.5751 124.878 50.2978 127.263 48.4022 127.682C46.5784 128.084 44.1467 128.095 42.6489 126.817C41.1789 125.566 40.897 123.307 42.3505 121.919C44.3677 119.99 49.3141 120.982 51.5081 122.167C51.6297 122.233 52.7682 123.021 53.5917 123.605C53.1937 123.175 52.7903 122.723 52.3979 122.321C50.9334 120.8 49.502 119.495 48.2198 118.354C47.4847 117.709 46.8105 117.142 46.1749 116.618C45.2078 116.773 41.2894 117.357 39.4435 116.866C37.6418 116.387 35.4809 115.28 34.7348 113.456C34.0053 111.671 34.8011 109.533 36.7355 108.971C39.4214 108.183 43.3453 111.34 44.7491 113.401C44.8707 113.577 46.4457 116.58 46.396 116.585C46.396 116.585 46.3463 116.591 46.3352 116.596C46.9597 117.087 47.6229 117.627 48.3358 118.227C49.6457 119.346 51.1102 120.624 52.6134 122.117C54.1167 123.61 55.7139 125.269 57.2337 127.175C58.7591 129.081 60.2678 131.159 61.5445 133.506C61.5611 133.533 61.5721 133.561 61.5832 133.588C61.4229 132.789 61.0526 130.53 61.0471 130.354C60.9255 127.869 62.1524 122.993 64.7665 122.007C66.6511 121.296 68.5799 122.525 69.0773 124.387C69.5857 126.288 68.5301 128.475 67.3806 129.935C66.0873 131.588 62.0419 133.688 61.7158 133.853C62.9095 136.095 63.9541 138.498 64.8715 140.982C65.402 142.404 65.8884 143.847 66.3582 145.308C66.2421 144.608 66.1426 143.985 66.1426 143.897C66.021 141.412 67.2479 136.536 69.862 135.55C71.7466 134.839 73.6754 136.068 74.1728 137.93C74.6813 139.831 73.6257 142.018 72.4761 143.484C71.31 144.971 67.9001 146.828 66.9882 147.313C67.165 147.875 67.3419 148.432 67.5132 148.994C68.3422 151.688 69.1546 154.382 70.0334 156.994C70.3428 157.914 70.68 158.812 71.0171 159.71C70.9176 159.093 70.8347 158.569 70.8292 158.487C70.7076 156.002 71.9345 151.126 74.5486 150.14C76.4332 149.429 78.362 150.657 78.8594 152.52C79.3678 154.421 78.3122 156.608 77.1627 158.074C76.0518 159.495 72.9183 161.236 71.8406 161.815C72.2109 162.724 72.5811 163.638 72.9846 164.503C73.272 165.087 73.5096 165.671 73.8301 166.239C74.1341 166.812 74.4381 167.379 74.742 167.936C75.361 168.994 75.9911 170.09 76.6211 171.109C77.0522 171.82 77.4777 172.492 77.9033 173.165C77.5827 172.25 76.9969 170.448 76.9637 170.289C76.4663 167.848 76.9361 162.845 79.3733 161.473C81.1308 160.487 83.2199 161.407 83.9936 163.175C84.7839 164.977 84.0765 167.297 83.1591 168.917C82.1532 170.702 78.6328 173.302 78.1907 173.622C78.8981 174.735 79.5999 175.815 80.2797 176.823C80.6224 177.335 80.954 177.826 81.2856 178.305L80.0863 179.561C79.6994 178.972 79.3015 178.36 78.8925 177.721C78.1685 176.592 77.4169 175.368 76.6543 174.107C76.3282 174.239 74.4712 174.977 72.6475 175.446C72.6806 177.55 71.2824 181.38 71.1 181.875C72.3103 182.415 73.4875 182.933 74.6094 183.396C74.9244 183.528 75.455 183.666 76.0242 183.804L74.7476 185.143C74.4104 185.066 74.1175 184.988 73.9517 184.917C72.7193 184.371 71.4205 183.765 70.0886 183.132C69.7847 183.572 67.2756 187.165 65.5126 188.223C63.9154 189.181 61.6108 189.953 59.776 189.22C57.9853 188.498 57.0016 186.443 57.9356 184.663C59.2343 182.195 64.2415 181.578 66.7008 182.008C66.8445 182.03 68.392 182.482 69.3591 182.779C68.8175 182.515 68.2869 182.267 67.7288 181.991C66.6234 181.451 65.5402 180.878 64.3741 180.272C63.8214 179.958 63.2577 179.638 62.694 179.319C62.1248 179.01 61.5666 178.619 60.9973 178.267C59.6931 177.424 58.4109 176.509 57.1342 175.556C56.6589 176.514 54.9181 179.908 53.4756 181.099C52.0387 182.283 49.8833 183.402 47.96 182.95C46.081 182.509 44.7933 180.625 45.4509 178.724C46.3628 176.09 51.2152 174.724 53.7132 174.773C53.868 174.773 55.6586 175.016 56.6368 175.165C55.8797 174.586 55.117 174.013 54.3654 173.402C52.199 171.638 50.0657 169.787 47.9269 167.952C47.2747 167.39 46.6115 166.834 45.9539 166.283C45.7881 166.625 43.804 170.702 42.1902 172.035C40.7533 173.225 38.5979 174.338 36.6747 173.886C34.7956 173.446 33.5079 171.561 34.1656 169.66C35.0775 167.027 39.9299 165.66 42.4279 165.71C42.6158 165.71 45.1857 166.057 45.8378 166.178C44.3898 164.955 42.9308 163.749 41.4497 162.619C39.4048 161.054 37.3102 159.633 35.1825 158.404C35.1051 158.564 33.0547 162.823 31.4023 164.195C29.9654 165.379 27.8044 166.498 25.8867 166.046C24.0077 165.605 22.72 163.721 23.3776 161.82C24.2895 159.186 29.1419 157.82 31.6399 157.87C31.8334 157.87 34.6022 158.244 35.0996 158.349C34.9725 158.277 34.8509 158.189 34.7238 158.118C32.4358 156.834 30.0538 155.881 27.7823 155.093C26.4615 154.635 25.1738 154.266 23.9137 153.941C23.6153 154.773 22.2005 158.564 20.8464 159.958C19.5477 161.297 17.5249 162.641 15.5685 162.404C13.6508 162.173 12.1641 160.443 12.6062 158.481C13.2197 155.759 17.8952 153.875 20.3822 153.649C20.5148 153.638 21.9075 153.666 22.9189 153.699C22.3497 153.561 21.7638 153.407 21.2112 153.286C19.1498 152.823 17.232 152.525 15.5298 152.272C14.5627 152.14 13.6839 152.035 12.8605 151.947C12.1365 152.608 9.19631 155.247 7.38358 155.853C5.61506 156.443 3.19993 156.707 1.56958 155.6C-0.0276182 154.509 -0.541594 152.294 0.757162 150.757L0.735056 150.707Z" fill="#E9873B"/>
<path d="M23.6152 153.44C23.6042 153.489 20.7137 151.704 20.5479 151.572C18.5915 150.024 15.7177 145.892 16.7014 143.28C17.4088 141.401 19.6029 140.762 21.3327 141.616C23.1012 142.487 24.0573 144.718 24.4055 146.547C24.8145 148.69 23.6152 153.44 23.6152 153.44Z" fill="#263238"/>
<path d="M122.68 232.995C146.292 232.995 165.434 230.688 165.434 227.843C165.434 224.998 146.292 222.691 122.68 222.691C99.0676 222.691 79.926 224.998 79.926 227.843C79.926 230.688 99.0676 232.995 122.68 232.995Z" fill="#263238"/>
<path d="M230.062 199.887H201.91V209.793H230.062V199.887Z" stroke="#263238" stroke-linecap="round" stroke-linejoin="round"/>
<path d="M229.178 209.777H202.794V225.727H229.178V209.777Z" stroke="#3A8D97" stroke-linecap="round" stroke-linejoin="round"/>
<path d="M219.009 199.942H212.963V225.87H219.009V199.942Z" stroke="#E9873B" stroke-linecap="round" stroke-linejoin="round"/>
<path d="M215.781 199.887C215.781 199.887 212.758 193.545 209.216 194.272C205.673 195 207.442 200.195 215.781 199.887Z" stroke="#263238" stroke-linecap="round" stroke-linejoin="round"/>
<path d="M216.036 199.887C216.036 199.887 219.059 193.545 222.601 194.272C226.144 195 224.375 200.195 216.036 199.887Z" stroke="#263238" stroke-linecap="round" stroke-linejoin="round"/>
<path d="M223.917 186.476C224.127 187.931 223.397 189.49 221.209 190.426C219.02 191.363 217.871 188.763 215.577 191.154C213.283 193.545 216.036 199.887 216.036 199.887C216.036 199.887 223.602 198.845 223.917 201.76C224.232 204.669 221.833 206.019 222.563 207.788C223.292 209.556 225.586 208.305 225.796 206.333" stroke="#263238" stroke-linecap="round" stroke-linejoin="round"/>
<path d="M221.197 30.0334C229.139 30.0334 235.578 23.6149 235.578 15.6972C235.578 7.77946 229.139 1.3609 221.197 1.3609C213.255 1.3609 206.817 7.77946 206.817 15.6972C206.817 23.6149 213.255 30.0334 221.197 30.0334Z" stroke="#263238" stroke-linecap="round" stroke-linejoin="round"/>
<path d="M221.28 27.3116V25.3612C219.683 25.3006 218.489 24.7827 217.705 23.8075C216.92 22.8322 216.489 21.4493 216.411 19.6531L219.39 19.0746C219.423 19.8019 219.506 20.4465 219.644 21.003C219.783 21.5595 220.004 21.9893 220.308 22.2923C220.612 22.5953 221.01 22.7441 221.507 22.7441C222.065 22.7441 222.463 22.5788 222.706 22.2427C222.949 21.9121 223.065 21.4879 223.065 20.9755C223.065 20.1545 222.878 19.4823 222.496 18.9534C222.115 18.43 221.623 17.9011 221.015 17.3721L218.617 15.2839C218.18 14.8983 217.804 14.4905 217.478 14.0663C217.152 13.642 216.898 13.1627 216.71 12.6283C216.522 12.0938 216.428 11.4712 216.428 10.7605C216.428 9.34999 216.831 8.24804 217.638 7.45465C218.445 6.65574 219.534 6.22047 220.899 6.14334V4.26453H221.899V6.1213C222.69 6.16538 223.342 6.34169 223.856 6.64472C224.37 6.94775 224.773 7.33343 225.077 7.80727C225.381 8.2811 225.608 8.81003 225.751 9.39957C225.901 9.98911 225.989 10.6007 226.017 11.2343L223.082 11.7467C223.049 11.1572 222.988 10.6282 222.894 10.1544C222.8 9.68057 222.629 9.31142 222.369 9.04144C222.115 8.77147 221.739 8.65025 221.242 8.68331C220.711 8.69984 220.313 8.87064 220.042 9.19571C219.772 9.52079 219.633 9.93401 219.633 10.4244C219.633 11.0911 219.783 11.6255 220.076 12.0387C220.368 12.4464 220.733 12.8542 221.17 13.2564L223.546 15.3225C224.044 15.7743 224.502 16.2592 224.933 16.7826C225.359 17.3115 225.702 17.8955 225.956 18.5457C226.21 19.1958 226.343 19.9396 226.343 20.7771C226.343 21.6146 226.177 22.3584 225.84 23.0196C225.508 23.6752 225.038 24.2097 224.431 24.6119C223.823 25.0141 223.104 25.262 222.264 25.3557V27.3282H221.264L221.28 27.3116Z" fill="#3A8D97"/>
<path d="M38.1294 15.3914C40.6887 14.7963 42.2794 12.2454 41.6825 9.69397C41.0855 7.1425 38.5268 5.5566 35.9675 6.15175C33.4082 6.7469 31.8174 9.29774 32.4144 11.8492C33.0114 14.4007 35.5701 15.9866 38.1294 15.3914Z" stroke="#263238" stroke-linecap="round" stroke-linejoin="round"/>
<path d="M43.8538 24.4135C43.7267 20.0553 40.7368 16.5677 37.056 16.5677C33.3753 16.5677 30.3854 20.0553 30.2583 24.4135" stroke="#263238" stroke-linecap="round" stroke-linejoin="round"/>
<path d="M47.9932 13.9065C50.1786 13.9065 51.9503 12.1403 51.9503 9.96155C51.9503 7.78282 50.1786 6.0166 47.9932 6.0166C45.8078 6.0166 44.0361 7.78282 44.0361 9.96155C44.0361 12.1403 45.8078 13.9065 47.9932 13.9065Z" stroke="#263238" stroke-linecap="round" stroke-linejoin="round"/>
<path d="M53.6414 21.306C53.5364 17.6861 51.0494 14.788 47.9877 14.788C45.987 14.788 44.2351 16.0277 43.2292 17.8955" stroke="#263238" stroke-linecap="round" stroke-linejoin="round"/>
<path d="M26.2405 13.9065C28.4259 13.9065 30.1976 12.1403 30.1976 9.96155C30.1976 7.78282 28.4259 6.0166 26.2405 6.0166C24.0551 6.0166 22.2834 7.78282 22.2834 9.96155C22.2834 12.1403 24.0551 13.9065 26.2405 13.9065Z" stroke="#263238" stroke-linecap="round" stroke-linejoin="round"/>
<path d="M20.5923 21.306C20.6973 17.6861 23.1843 14.788 26.246 14.788C28.2467 14.788 29.9986 16.0277 31.0044 17.8955" stroke="#263238" stroke-linecap="round" stroke-linejoin="round"/>
<path d="M35.7992 221.024C43.6403 219.767 48.9742 212.41 47.7126 204.593C46.451 196.776 39.0718 191.458 31.2306 192.716C23.3895 193.974 18.0557 201.33 19.3172 209.148C20.5788 216.965 27.958 222.282 35.7992 221.024Z" stroke="#263238" stroke-linecap="round" stroke-linejoin="round"/>
<path d="M33.4968 198.807V214.934" stroke="#263238" stroke-width="4" stroke-linecap="round" stroke-linejoin="round"/>
<path d="M41.5877 206.873H25.4058" stroke="#263238" stroke-width="4" stroke-linecap="round" stroke-linejoin="round"/>
<path d="M168.02 29.4108V196.603C168.02 201.192 164.29 204.912 159.686 204.912H87.2211C82.6174 204.912 78.887 201.192 78.887 196.603V29.4053C78.887 24.8212 82.6174 21.1022 87.2156 21.1022H118.319L118.347 21.1958C119.121 23.9782 120.906 25.7854 122.884 25.7854H124.017C125.996 25.7854 127.781 23.9782 128.555 21.1958L128.582 21.1022H159.675C164.279 21.1022 168.009 24.8212 168.009 29.4108H168.02Z" fill="white" stroke="#263238" stroke-linecap="round" stroke-linejoin="round"/>
<path d="M173.685 69.3452V52.6453H172.171V31.2676C172.171 23.9893 166.252 18.0884 158.951 18.0884H87.9506C80.65 18.0884 74.731 23.9893 74.731 31.2676V201.148C74.731 208.427 80.65 214.328 87.9506 214.328H158.951C166.252 214.328 172.171 208.427 172.171 201.148V83.5768H173.685V73.7089H172.171V69.3452H173.685ZM168.015 191.738C168.015 199.016 162.096 204.917 154.795 204.917H92.1011C84.8005 204.917 78.8814 199.016 78.8814 191.738V34.2759C78.8814 26.9976 84.8005 21.1022 92.1011 21.1022H118.314L118.342 21.1959C119.115 23.9783 120.9 25.7854 122.879 25.7854H124.012C125.99 25.7854 127.775 23.9783 128.549 21.1959L128.577 21.1022H154.784C162.085 21.1022 168.004 27.0031 168.004 34.2759V191.732L168.015 191.738Z" fill="#92E3A9" stroke="#263238" stroke-linecap="round" stroke-linejoin="round"/>
<path d="M157.895 19.9011H89.0116C81.9707 19.9011 76.2617 25.5926 76.2617 32.612V199.799C76.2617 206.818 81.9707 212.509 89.0116 212.509H157.895C164.936 212.509 170.645 206.818 170.645 199.799V32.612C170.645 25.5926 164.936 19.9011 157.895 19.9011ZM168.02 192.201C168.02 199.22 162.311 204.912 155.27 204.912H91.6368C84.5959 204.912 78.8869 199.22 78.8869 192.201V33.8076C78.8869 26.7882 84.5903 21.1022 91.6313 21.1022H118.319L118.347 21.1958C119.121 23.9782 120.906 25.7854 122.884 25.7854H124.017C125.996 25.7854 127.781 23.9782 128.555 21.1958L128.582 21.1022H155.265C162.306 21.1022 168.015 26.7937 168.015 33.8131V192.206L168.02 192.201Z" fill="#263238" stroke="#263238" stroke-linecap="round" stroke-linejoin="round"/>
<path d="M124.421 21.7303C124.421 21.0471 123.863 20.4906 123.177 20.4906C122.492 20.4906 121.934 21.0471 121.934 21.7303C121.934 22.4135 122.492 22.97 123.177 22.97C123.863 22.97 124.421 22.4135 124.421 21.7303Z" fill="white"/>
<path d="M86.8067 26.4742C86.8067 27.7249 85.3974 28.1767 85.3919 29.1298V29.196H86.7625V29.6147H84.9387V29.2566C84.9387 27.9177 86.348 27.6532 86.348 26.4852C86.348 26.0609 86.2043 25.835 85.8617 25.835C85.519 25.835 85.3753 26.0775 85.3753 26.4466V26.8158H84.9387V26.4797C84.9387 25.8461 85.2316 25.4218 85.8727 25.4218C86.5138 25.4218 86.8122 25.835 86.8122 26.4742H86.8067Z" fill="#263238"/>
<path d="M89.0891 26.4686V26.5733C89.0891 27.0031 88.9178 27.3006 88.5862 27.4273C88.9344 27.5596 89.0891 27.8736 89.0891 28.2868V28.6064C89.0891 29.24 88.7907 29.6588 88.1496 29.6588C87.5085 29.6588 87.2156 29.2455 87.2156 28.6064V28.3199H87.6522V28.634C87.6522 29.0086 87.8069 29.2345 88.1385 29.2345C88.4701 29.2345 88.6249 29.0141 88.6249 28.5954V28.2758C88.6249 27.8681 88.4535 27.6698 88.0998 27.6587H87.8511V27.2455H88.1275C88.437 27.2345 88.6249 27.0361 88.6249 26.678V26.4852C88.6249 26.0609 88.4756 25.8405 88.1385 25.8405C87.8014 25.8405 87.6522 26.0719 87.6522 26.4466V26.6615H87.2156V26.4742C87.2156 25.8405 87.514 25.4273 88.1496 25.4273C88.7851 25.4273 89.0891 25.835 89.0891 26.4742V26.4686Z" fill="#263238"/>
<path d="M89.9845 26.7827V27.3557H89.5369V26.7827H89.9845ZM89.9845 29.0417V29.6147H89.5369V29.0417H89.9845Z" fill="#263238"/>
<path d="M90.9295 27.1519C91.0622 26.926 91.2667 26.8102 91.5485 26.8102C92.0846 26.8102 92.3223 27.2014 92.3223 27.7965V28.6119C92.3223 29.2455 92.0183 29.6643 91.3827 29.6643C90.7472 29.6643 90.4487 29.251 90.4487 28.6119V28.3309H90.8853V28.6395C90.8853 29.0141 91.0401 29.24 91.3717 29.24C91.7033 29.24 91.858 29.0141 91.858 28.6395V27.8351C91.858 27.4604 91.7033 27.2345 91.3717 27.2345C91.1175 27.2345 90.9461 27.3777 90.9019 27.6808V27.7744H90.4653L90.5758 25.4659H92.2172V25.8791H90.9903L90.924 27.1574L90.9295 27.1519Z" fill="#263238"/>
<path d="M94.6324 26.4576V26.5348H94.1958V26.4301C94.1958 26.0554 94.0411 25.835 93.704 25.835C93.3669 25.835 93.1955 26.0609 93.1955 26.5072V27.4384C93.3061 27.1519 93.5327 26.9921 93.8698 26.9921C94.4059 26.9921 94.6435 27.3778 94.6435 27.9783V28.6064C94.6435 29.24 94.3285 29.6588 93.6929 29.6588C93.0574 29.6588 92.7368 29.2456 92.7368 28.6064V26.4907C92.7368 25.835 93.0353 25.4218 93.6929 25.4218C94.3506 25.4218 94.6324 25.824 94.6324 26.4576ZM93.2011 28.0114V28.634C93.2011 29.0086 93.3558 29.2345 93.6929 29.2345C94.03 29.2345 94.1848 29.0086 94.1848 28.634V28.0114C94.1848 27.6367 94.0245 27.4108 93.6929 27.4108C93.3613 27.4108 93.2011 27.6367 93.2011 28.0114Z" fill="#263238"/>
<path d="M140.105 26.645H138.928V29.5761H140.105V26.645Z" fill="#263238"/>
<path d="M141.675 26.0554H140.498V29.5761H141.675V26.0554Z" fill="#263238"/>
<path d="M143.239 25.6367H142.062V29.5706H143.239V25.6367Z" fill="#263238"/>
<path d="M144.809 24.9149H143.631V29.5761H144.809V24.9149Z" fill="#263238"/>
<path d="M159.36 29.4935H152.303V25.1959H159.36V29.4935ZM152.695 29.1023H158.968V25.5871H152.695V29.1023Z" fill="#263238"/>
<path d="M157.011 26.0114H153.286V28.6781H157.011V26.0114Z" fill="#263238"/>
<path d="M160.007 26.8378H159.117V27.8516H160.007V26.8378Z" fill="#263238"/>
<path d="M149.716 28.5568C149.672 28.5568 149.622 28.5458 149.583 28.5182C148.147 27.6697 147.196 28.4576 147.157 28.4907C147.047 28.5844 146.881 28.5733 146.787 28.4631C146.693 28.3529 146.704 28.1877 146.809 28.094C146.859 28.0499 148.075 27.0141 149.849 28.0664C149.976 28.1381 150.015 28.3034 149.943 28.4246C149.893 28.5072 149.805 28.5513 149.716 28.5513V28.5568Z" fill="#263238"/>
<path d="M150.247 27.6753C150.202 27.6753 150.153 27.6642 150.114 27.6367C148.036 26.408 146.643 27.5981 146.627 27.6092C146.516 27.7083 146.35 27.6918 146.256 27.5871C146.162 27.4769 146.168 27.3116 146.279 27.218C146.295 27.2014 147.981 25.7634 150.385 27.1904C150.512 27.262 150.551 27.4273 150.479 27.5485C150.429 27.6312 150.341 27.6753 150.252 27.6753H150.247Z" fill="#263238"/>
<path d="M150.733 26.6505C150.689 26.6505 150.639 26.6394 150.6 26.6119C147.97 25.0526 146.223 26.5182 146.151 26.5843C146.041 26.678 145.875 26.667 145.781 26.5568C145.687 26.4466 145.698 26.2813 145.803 26.1876C145.825 26.1711 147.903 24.397 150.871 26.1601C150.998 26.2317 151.037 26.397 150.965 26.5182C150.915 26.6009 150.827 26.645 150.738 26.645L150.733 26.6505Z" fill="#263238"/>
<path d="M148.926 28.9976C148.926 29.3612 148.628 29.6588 148.263 29.6588C147.898 29.6588 147.6 29.3612 147.6 28.9976C147.6 28.634 147.898 28.3364 148.263 28.3364C148.628 28.3364 148.926 28.634 148.926 28.9976Z" fill="#263238"/>
<path d="M35.8677 51.5654H42.3117" stroke="#263238" stroke-linecap="round" stroke-linejoin="round"/>
<path d="M85.8228 51.5654H92.2668" stroke="#263238" stroke-linecap="round" stroke-linejoin="round"/>
<path d="M42.3118 34.6946L45.9372 37.5101" stroke="#263238" stroke-linecap="round" stroke-linejoin="round"/>
<path d="M85.0158 34.6946L81.3904 37.5101" stroke="#263238" stroke-linecap="round" stroke-linejoin="round"/>
<path d="M56.8135 27.8681L57.2169 33.8902" stroke="#263238" stroke-linecap="round" stroke-linejoin="round"/>
<path d="M70.9175 28.6725L70.1106 33.8902" stroke="#263238" stroke-linecap="round" stroke-linejoin="round"/>
<path d="M80.0585 44.0391H45.2739V73.9623H80.0585V44.0391Z" fill="white" stroke="#263238" stroke-linecap="round" stroke-linejoin="round"/>
<path d="M58.1897 44.0391H51.6296V73.9623H58.1897V44.0391Z" fill="#E9873B" stroke="#263238" stroke-linecap="round" stroke-linejoin="round"/>
<path d="M80.0585 44.0391H64.8105V73.9623H80.0585V44.0391Z" fill="white" stroke="#263238" stroke-linecap="round" stroke-linejoin="round"/>
<path d="M60.2124 41.5983L55.1169 39.3724C54.9787 39.3558 54.8571 39.3503 54.7411 39.3503L54.6582 39.3118H49.5239L53.5252 41.1796C53.5473 41.4606 53.5915 41.7415 53.6523 42.0115C53.89 43.0308 54.8461 43.5267 55.4706 43.7526L55.5037 43.9069H56.0232H56.0343L64.9156 44.0281C64.9156 44.0281 62.6386 42.8104 60.2179 41.5873L60.2124 41.5983Z" fill="#E9873B" stroke="#263238" stroke-linecap="round" stroke-linejoin="round"/>
<path d="M59.8034 44.0391C59.8034 44.0391 54.2602 41.0694 51.2813 39.7636C48.3025 38.4578 48.1864 40.4743 48.5401 42.0226C48.8994 43.5653 50.9221 43.9234 50.9221 43.9234L59.8034 44.0446V44.0391Z" fill="#E9873B" stroke="#263238" stroke-linecap="round" stroke-linejoin="round"/>
<path d="M61.1188 41.8738H59.1679C57.9962 41.8738 57.0457 42.8214 57.0457 43.9895H63.2355C63.2355 42.8214 62.2849 41.8738 61.1132 41.8738H61.1188Z" fill="#E9873B" stroke="#263238" stroke-linecap="round" stroke-linejoin="round"/>
<path d="M73.3105 39.3779H68.8008L68.215 41.6038C65.7943 42.8215 63.5173 44.0446 63.5173 44.0446L72.3986 43.9234C72.3986 43.9234 72.4041 43.9234 72.4097 43.9234H72.9292L72.9623 43.7691C73.5868 43.5432 74.5485 43.0474 74.7806 42.0281C75.079 40.7443 75.0403 39.141 73.316 39.3834L73.3105 39.3779Z" fill="#E9873B" stroke="#263238" stroke-linecap="round" stroke-linejoin="round"/>
<path d="M58.1897 44.0391C58.1897 44.0391 63.7329 41.0694 66.7117 39.7636C69.6906 38.4578 69.8067 40.4743 69.453 42.0226C69.0992 43.5708 67.071 43.9234 67.071 43.9234L58.1897 44.0446V44.0391Z" fill="#E9873B" stroke="#263238" stroke-linecap="round" stroke-linejoin="round"/>
<path d="M47.844 74.0725C47.844 74.0725 44.937 72.1441 45.5725 71.5325C46.2081 70.9209 49.3307 72.2653 50.0381 73.1689C50.751 74.0725 50.3918 74.7061 49.8059 74.7612C49.2201 74.8163 47.844 74.0725 47.844 74.0725Z" fill="white" stroke="#263238" stroke-linecap="round" stroke-linejoin="round"/>
<path d="M50.2979 71.8521C50.2979 71.8521 45.7937 69.516 46.8714 71.6702C47.9546 73.8245 50.6571 75.8025 51.7348 76.3425C52.8181 76.8824 58.7647 76.7006 58.7647 76.7006C58.7647 76.7006 57.6815 74.7226 56.6038 74.1882C55.5206 73.6482 50.2979 71.8521 50.2979 71.8521Z" fill="white" stroke="#263238" stroke-linecap="round" stroke-linejoin="round"/>
<path d="M54.6196 71.852C54.6196 71.852 48.673 68.6178 48.4906 69.8741C48.3082 71.1303 53.1772 75.2625 54.7965 75.9843C56.4158 76.7006 58.759 76.7006 58.759 76.7006L54.6141 71.852H54.6196Z" fill="white" stroke="#263238" stroke-linecap="round" stroke-linejoin="round"/>
<path d="M78.0471 77.3838C78.0471 77.3838 75.8862 72.3534 74.2614 71.6372C72.6421 70.9209 58.0407 72.3534 58.0407 72.3534C58.0407 72.3534 51.0109 66.6068 51.5525 69.4774C52.0941 72.3534 56.5983 75.764 57.8583 76.662C59.1184 77.5601 68.4916 77.202 68.4916 77.202L71.3765 79.8962L78.0416 77.3838H78.0471Z" fill="white" stroke="#263238" stroke-linecap="round" stroke-linejoin="round"/>
<path d="M166.76 85.4776C166.76 85.4776 166.169 86.5795 166.506 87.5933C166.843 88.6071 167.777 89.4556 167.777 89.4556L168.203 92.0782L173.973 92.3316L171.596 83.5381L166.76 85.4831V85.4776Z" fill="white" stroke="#263238" stroke-linecap="round" stroke-linejoin="round"/>
<path d="M162.836 69.1248C162.836 69.1248 165.24 84.7172 165.605 85.6759C165.964 86.6346 168.733 87.7145 169.695 87.2352C170.657 86.7558 168.971 84.4748 168.971 84.4748L169.452 69.4829C169.452 69.4829 165.362 67.9237 162.836 69.1248Z" fill="#263238" stroke="#263238" stroke-linecap="round" stroke-linejoin="round"/>
<path d="M169.573 74.045C169.573 74.045 166.202 73.8025 166.086 74.4031C165.97 75.0036 165.965 77.0422 166.567 77.2792C167.169 77.5216 171.259 77.8797 171.983 77.6373C172.707 77.3949 173.547 75.9568 172.823 74.8769C172.099 73.797 169.573 74.0395 169.573 74.0395V74.045Z" fill="white" stroke="#263238" stroke-linecap="round" stroke-linejoin="round"/>
<path d="M169.573 77.8797C169.573 77.8797 166.324 77.8797 166.445 78.6015C166.567 79.3232 166.202 80.8825 167.528 81.1194C168.849 81.3618 171.137 81.2406 172.342 80.9982C173.547 80.7558 173.906 79.3177 172.945 78.4802C171.983 77.6428 169.573 77.8797 169.573 77.8797Z" fill="white" stroke="#263238" stroke-linecap="round" stroke-linejoin="round"/>
<path d="M164.356 78.8053C164.356 78.8053 163.942 75.7805 162.964 75.8687C162.234 75.9293 160.493 76.4802 160.648 77.8081C160.808 79.1414 161.593 81.2847 162.179 82.3591C162.765 83.4335 164.246 83.3563 164.771 82.1938C165.296 81.0312 164.356 78.8053 164.356 78.8053Z" fill="white" stroke="#263238" stroke-linecap="round" stroke-linejoin="round"/>
<path d="M169.756 81.1194C169.756 81.1194 166.816 81.1194 166.926 81.8136C167.037 82.5079 166.711 84.0065 167.904 84.2379C169.104 84.4693 171.171 84.3536 172.259 84.1222C173.348 83.8908 173.674 82.5079 172.801 81.6979C171.928 80.888 169.75 81.1194 169.75 81.1194H169.756Z" fill="white" stroke="#263238" stroke-linecap="round" stroke-linejoin="round"/>
<path d="M169.894 83.753C169.894 83.753 167.435 83.753 167.529 84.3316C167.622 84.9101 167.346 86.1663 168.346 86.3591C169.347 86.552 171.077 86.4583 171.988 86.26C172.9 86.0671 173.171 84.9101 172.442 84.2324C171.712 83.5547 169.894 83.7475 169.894 83.7475V83.753Z" fill="white" stroke="#263238" stroke-linecap="round" stroke-linejoin="round"/>
<path d="M162.168 53.345C158.774 53.2789 155.862 55.3946 154.602 58.3258C154.176 59.3175 153.944 60.4029 153.944 61.5489C153.944 63.538 154.652 65.3617 155.84 66.7832C157.349 68.5959 159.819 69.8962 162.168 69.7474C169.385 69.3066 188.309 79.4059 188.309 79.4059V43.681C188.309 43.681 169.656 53.4882 162.168 53.345Z" fill="white" stroke="#263238" stroke-linecap="round" stroke-linejoin="round"/>
<path d="M160.698 61.8355C160.698 57.9456 162.87 54.5682 166.069 52.8271C164.594 53.1687 163.256 53.3615 162.168 53.345C158.774 53.2789 155.862 55.3946 154.602 58.3258C154.176 59.3175 153.944 60.4029 153.944 61.549C153.944 63.538 154.652 65.3617 155.84 66.7832C157.349 68.5959 159.819 69.8962 162.168 69.7474C162.892 69.7033 163.737 69.7694 164.666 69.9182C162.256 68.0449 160.698 65.1248 160.698 61.841V61.8355Z" fill="#263238" stroke="#263238" stroke-linecap="round" stroke-linejoin="round"/>
<path d="M205.709 65.7639C208.049 56.1786 202.152 46.5169 192.537 44.1838C182.922 41.8506 173.231 47.7297 170.891 57.315C168.55 66.9003 174.447 76.5621 184.062 78.8952C193.677 81.2283 203.368 75.3493 205.709 65.7639Z" fill="white" stroke="#263238" stroke-linecap="round" stroke-linejoin="round"/>
<path d="M203.579 61.5489C203.579 69.9567 196.742 76.7722 188.309 76.7722C183.583 76.7722 179.356 74.6345 176.559 71.2625C174.36 68.6289 173.044 65.2404 173.044 61.5434C173.044 59.4167 173.481 57.4001 174.266 55.5599C176.598 50.1218 182.008 46.3146 188.309 46.3146C196.742 46.3146 203.579 53.1301 203.579 61.5379V61.5489Z" fill="#A6A6A6" stroke="#263238" stroke-linecap="round" stroke-linejoin="round"/>
<path d="M188.309 57.8244V65.2625L176.559 71.2625C174.36 68.6289 173.044 65.2404 173.044 61.5434C173.044 59.4167 173.481 57.4001 174.266 55.5599L188.309 57.8189V57.8244Z" fill="white" stroke="#263238" stroke-linecap="round" stroke-linejoin="round"/>
<path d="M192.039 61.5434C192.039 63.5985 190.37 65.2624 188.309 65.2624C186.247 65.2624 184.578 63.5985 184.578 61.5434C184.578 59.4883 186.247 57.8243 188.309 57.8243C190.37 57.8243 192.039 59.4883 192.039 61.5434Z" fill="white" stroke="#263238" stroke-linecap="round" stroke-linejoin="round"/>
<path d="M166.992 92.3096L166.396 89.8137L174.144 88.8605L173.967 92.3261L166.992 92.3096Z" fill="white" stroke="#263238" stroke-linecap="round" stroke-linejoin="round"/>
<path d="M70.9176 80.899L69.127 78.0505L77.3561 73.8907L78.0469 77.3838L70.9176 80.899Z" fill="white" stroke="#263238" stroke-linecap="round" stroke-linejoin="round"/>
<path d="M120.9 76.7722C120.9 76.7722 107.681 75.3067 106.509 75.8962C105.332 76.4802 88.5917 96.2491 88.5917 96.2491L78.3122 75.753L69.6465 79.5602C69.6465 79.5602 80.5118 116.453 82.2748 116.894C84.0378 117.335 100.778 106.205 100.778 106.205L99.75 120.844C99.75 120.844 102.834 133.142 116.49 135.484C130.146 137.825 138.226 127.285 139.989 123.77C141.752 120.255 143.366 115.131 143.366 115.131L149.683 96.5356C149.683 96.5356 167.451 111.032 171.419 112.789C175.382 114.547 179.057 116.156 179.494 115.28C179.936 114.404 175.531 90.9763 175.531 90.9763L166.13 91.417L166.572 95.0755C166.572 95.0755 154.381 79.1194 153.353 77.505C152.325 75.8962 149.241 76.1882 145.571 75.1634C141.902 74.1386 120.9 76.7722 120.9 76.7722Z" fill="#3A8D97" stroke="#3A8D97" stroke-linecap="round" stroke-linejoin="round"/>
<path d="M100.783 106.2L110.621 98.8772" stroke="#263238" stroke-linecap="round" stroke-linejoin="round"/>
<path d="M107.095 101.66L112.091 100.784" stroke="#263238" stroke-linecap="round" stroke-linejoin="round"/>
<path d="M149.683 96.5356L153.065 84.6787" stroke="#263238" stroke-linecap="round" stroke-linejoin="round"/>
<path d="M151.009 92.7284L154.679 87.6044" stroke="#263238" stroke-linecap="round" stroke-linejoin="round"/>
<path d="M167.014 103.599L167.164 106.492" stroke="#263238" stroke-linecap="round" stroke-linejoin="round"/>
<path d="M166.572 95.07L166.843 100.288" stroke="#263238" stroke-linecap="round" stroke-linejoin="round"/>
<path d="M88.5918 96.2436L91.6757 102.684" stroke="#263238" stroke-linecap="round" stroke-linejoin="round"/>
<path d="M125.896 75.1634L119.436 76.337C119.436 76.337 117.087 78.2379 115.766 82.6346C114.445 87.0258 114.003 90.8331 114.003 90.8331L119.585 91.1251L115.18 95.5163C115.18 95.5163 116.501 97.4172 119.292 101.516C122.083 105.616 126.488 110.299 126.488 110.299L118.264 120.839C118.264 120.839 128.251 118.641 134.419 111.908C140.586 105.175 144.256 95.07 144.256 95.07L139.409 91.2628L144.549 90.238C144.549 90.238 145.577 81.8908 140.144 76.4748C134.711 71.0587 125.896 75.1579 125.896 75.1579V75.1634Z" fill="#001927" stroke="#263238" stroke-linecap="round" stroke-linejoin="round"/>
<path d="M140.437 78.6733C140.437 78.6733 138.718 82.0562 138.381 88.3373C138.116 93.2409 135.535 99.489 133.252 103.908C131.445 107.423 129.826 109.781 129.71 109.423C129.71 109.423 128.754 107.902 127.234 103.478C126.864 102.415 126.466 101.18 126.035 99.7589C123.835 92.4365 121.923 80.5796 122.801 78.238C123.686 75.8964 124.272 74.8716 124.272 74.8716C131.324 84.3868 140.426 78.6788 140.426 78.6788L140.437 78.6733Z" fill="white" stroke="#263238" stroke-linecap="round" stroke-linejoin="round"/>
<path d="M131.478 98.734L133.258 103.908C131.451 107.423 129.831 109.781 129.715 109.423C129.715 109.423 128.759 107.902 127.239 103.478L129.715 99.026L127.261 94.4474L130.157 91.5548L134.12 95.5053L131.478 98.7285V98.734Z" fill="#E9873B" stroke="#263238" stroke-linecap="round" stroke-linejoin="round"/>
<path d="M125.305 96.5356L130.152 91.5603L136.06 97.1086" stroke="#263238" stroke-linecap="round" stroke-linejoin="round"/>
<path d="M124.277 74.8659C124.277 74.8659 124.426 79.2571 126.04 83.5051C127.654 87.7531 130.152 91.5548 130.152 91.5548L137.055 81.7475C137.055 81.7475 129.566 82.4803 124.277 74.8659Z" stroke="#263238" stroke-linecap="round" stroke-linejoin="round"/>
<path d="M145.289 59.3561C145.289 59.3561 147.384 59.0255 147.384 61.885C147.384 64.7446 146.168 68.2653 146.168 68.2653L145.284 59.3506L145.289 59.3561Z" fill="white" stroke="#263238" stroke-linecap="round" stroke-linejoin="round"/>
<path d="M144.543 48.8105C144.543 48.8105 146.013 62.133 146.157 66.0889C146.306 70.0394 145.864 73.5546 144.543 75.3122C143.222 77.0698 137.933 84.0947 135.142 84.3922C132.351 84.6842 129.268 83.2186 128.096 82.1938C126.919 81.169 121.342 72.3865 121.342 72.3865C121.342 72.3865 117.081 72.0945 116.053 66.5297C115.026 60.9649 120.751 62.2817 120.751 62.2817C120.751 62.2817 117.667 57.4497 117.374 52.7665C117.081 48.0832 116.197 46.3256 128.831 46.0336C141.459 45.7416 144.543 48.816 144.543 48.816V48.8105Z" fill="white" stroke="#263238" stroke-linecap="round" stroke-linejoin="round"/>
<path d="M137.939 58.177L141.46 70.3314L136.027 68.7171" stroke="#263238" stroke-linecap="round" stroke-linejoin="round"/>
<path d="M130.594 67.257L126.333 68.1331" stroke="#263238" stroke-linecap="round" stroke-linejoin="round"/>
<path d="M128.538 67.9843C128.538 67.9843 129.566 71.9347 134.264 72.6675C138.961 73.4003 141.31 72.5187 141.31 72.5187" stroke="#263238" stroke-linecap="round" stroke-linejoin="round"/>
<path d="M129.715 70.3314C129.715 70.3314 129.566 77.6538 132.213 77.9458C134.855 78.2378 134.269 72.673 134.269 72.673C134.269 72.673 131.771 72.089 129.715 70.3314Z" fill="#263238" stroke="#263238" stroke-linecap="round" stroke-linejoin="round"/>
<path d="M130.257 75.3893C130.616 76.7227 131.218 77.8301 132.213 77.9403C132.799 78.0065 133.23 77.7806 133.54 77.3949C133.031 76.4913 131.257 75.7475 130.262 75.3893H130.257Z" fill="white" stroke="#263238" stroke-linecap="round" stroke-linejoin="round"/>
<path d="M131.55 61.5434C131.55 62.3533 131.191 63.009 130.743 63.009C130.296 63.009 129.937 62.3533 129.937 61.5434C129.937 60.7335 130.296 60.0778 130.743 60.0778C131.191 60.0778 131.55 60.7335 131.55 61.5434Z" fill="#263238"/>
<path d="M141.387 60.2266C141.387 61.0366 141.028 61.6922 140.581 61.6922C140.133 61.6922 139.774 61.0366 139.774 60.2266C139.774 59.4167 140.133 58.761 140.581 58.761C141.028 58.761 141.387 59.4167 141.387 60.2266Z" fill="#263238"/>
<path d="M128.096 59.0586C128.096 59.0586 130.003 56.5682 133.678 57.009" stroke="#263238" stroke-linecap="round" stroke-linejoin="round"/>
<path d="M138.375 56.4194C138.375 56.4194 140.282 52.9042 143.366 54.6618" stroke="#263238" stroke-linecap="round" stroke-linejoin="round"/>
<path d="M128.98 49.1025C128.98 49.1025 124.426 48.3697 125.454 49.6865C126.482 51.0034 128.831 52.6122 127.659 53.637C126.488 54.6618 123.548 56.4194 123.697 57.2954C123.846 58.1715 124.139 61.8354 123.697 62.7115C123.255 63.5875 122.227 63.7363 121.199 63.5875C120.171 63.4388 118.701 60.8051 118.115 60.0723C117.529 59.3395 112.24 54.0723 113.268 49.8243C114.296 45.5763 125.311 42.2099 125.311 42.2099C125.311 42.2099 132.357 34.3034 137.06 34.1602C141.758 34.0114 139.995 38.4082 139.851 38.8434C139.702 39.2842 146.605 38.4027 147.926 42.6506C149.246 46.8986 148.804 48.0667 142.786 49.6755C136.767 51.2844 128.98 49.0915 128.98 49.0915V49.1025Z" fill="#263238" stroke="#263238" stroke-linecap="round" stroke-linejoin="round"/>
<path d="M221.612 43.2512L209.641 46.3422L212.117 47.5763L205.309 49.6315L219.136 47.7802L215.627 46.1328L221.612 43.2512Z" fill="#263238"/>
<path d="M224.066 72.3039L211.963 69.808L213.637 72.0064L206.613 70.8548L219.844 75.2791L217.423 72.2543L224.066 72.3039Z" fill="#263238"/>
<path d="M211.045 92.1995L200.854 85.2297L201.545 87.9019L195.515 84.1277L205.999 93.3124L204.938 89.5934L211.045 92.1995Z" fill="#263238"/>
<path d="M102.406 156.016C102.125 156.016 101.865 155.974 101.625 155.891C101.333 155.786 101.167 155.612 101.125 155.367C100.948 153.753 100.859 152.003 100.859 150.117C100.859 148.232 100.948 146.484 101.125 144.875C101.156 144.677 101.253 144.534 101.414 144.445C101.576 144.352 101.763 144.292 101.977 144.266C102.195 144.24 102.391 144.227 102.562 144.227C103.906 144.227 105.016 144.349 105.891 144.594C106.766 144.833 107.438 145.156 107.906 145.562C108.38 145.964 108.656 146.331 108.734 146.664C108.812 146.997 108.852 147.253 108.852 147.43C108.852 147.742 108.789 148.06 108.664 148.383C108.471 148.888 108.148 149.365 107.695 149.812C107.247 150.255 106.698 150.63 106.047 150.938L108.727 153.969C108.94 154.224 109.047 154.464 109.047 154.688C109.047 154.745 109.039 154.799 109.023 154.852C108.956 155.112 108.794 155.326 108.539 155.492C108.284 155.654 108.078 155.74 107.922 155.75C107.766 155.755 107.68 155.758 107.664 155.758C107.388 155.758 107.159 155.674 106.977 155.508L103.727 152.109C103.763 153.214 103.833 154.229 103.938 155.156V155.188C103.938 155.417 103.807 155.604 103.547 155.75C103.292 155.891 103.055 155.971 102.836 155.992C102.617 156.008 102.474 156.016 102.406 156.016ZM103.695 149.383C104.216 149.253 104.68 149.049 105.086 148.773C105.492 148.492 105.737 148.247 105.82 148.039C105.904 147.826 105.945 147.674 105.945 147.586C105.945 146.971 105.234 146.586 103.812 146.43C103.745 147.367 103.706 148.352 103.695 149.383ZM113.906 156.078C112.354 156.078 111.148 155.484 110.289 154.297C109.549 153.276 109.18 152.029 109.18 150.555C109.18 149.789 109.299 149.034 109.539 148.289C109.753 147.617 110.065 147.01 110.477 146.469C110.888 145.927 111.393 145.495 111.992 145.172C112.596 144.849 113.292 144.688 114.078 144.688C114.849 144.688 115.5 144.82 116.031 145.086C116.568 145.352 116.982 145.698 117.273 146.125C117.565 146.552 117.724 146.914 117.75 147.211C117.776 147.503 117.789 147.69 117.789 147.773C117.789 148.195 117.703 148.612 117.531 149.023C117.323 149.523 116.982 149.974 116.508 150.375C116.039 150.771 115.474 151.065 114.812 151.258C114.156 151.451 113.451 151.547 112.695 151.547C112.492 151.547 112.284 151.542 112.07 151.531C112.164 151.87 112.297 152.18 112.469 152.461C112.641 152.737 112.852 152.961 113.102 153.133C113.352 153.299 113.643 153.383 113.977 153.383C114.315 153.383 114.633 153.292 114.93 153.109C115.227 152.922 115.417 152.646 115.5 152.281C115.568 151.984 115.716 151.799 115.945 151.727C116.18 151.648 116.393 151.609 116.586 151.609C116.721 151.609 116.859 151.622 117 151.648C117.344 151.716 117.622 151.844 117.836 152.031C118.055 152.219 118.164 152.435 118.164 152.68L118.148 152.828C118.029 153.448 117.771 154.003 117.375 154.492C116.984 154.977 116.49 155.362 115.891 155.648C115.292 155.935 114.63 156.078 113.906 156.078ZM112.57 149.586C112.94 149.586 113.26 149.534 113.531 149.43C113.943 149.279 114.245 149.062 114.438 148.781C114.635 148.5 114.734 148.281 114.734 148.125C114.74 147.964 114.742 147.872 114.742 147.852C114.742 147.581 114.669 147.344 114.523 147.141C114.383 146.938 114.18 146.836 113.914 146.836C113.352 146.836 112.891 147.083 112.531 147.578C112.177 148.068 111.974 148.721 111.922 149.539C112.151 149.57 112.367 149.586 112.57 149.586ZM120.508 156.016C119.711 156.016 119.294 155.781 119.258 155.312C119.018 153.531 118.898 152.029 118.898 150.805C118.898 149.638 118.997 148.607 119.195 147.711C119.513 146.31 120.125 145.326 121.031 144.758C121.51 144.456 122.107 144.305 122.82 144.305C123.523 144.305 124.161 144.443 124.734 144.719C124.979 144.865 125.102 145.049 125.102 145.273C125.102 145.315 125.096 145.359 125.086 145.406C125.034 145.698 124.904 145.919 124.695 146.07C124.492 146.216 124.305 146.289 124.133 146.289C124.013 146.289 123.888 146.263 123.758 146.211C123.555 146.117 123.367 146.07 123.195 146.07C122.747 146.07 122.414 146.469 122.195 147.266C122.008 147.948 121.904 148.857 121.883 149.992H123.836C124.086 149.992 124.273 150.081 124.398 150.258C124.529 150.435 124.594 150.633 124.594 150.852C124.594 151.065 124.529 151.26 124.398 151.438C124.273 151.615 124.086 151.703 123.836 151.703H121.898C121.935 152.562 121.982 153.307 122.039 153.938C122.096 154.562 122.138 154.951 122.164 155.102V155.156C122.164 155.38 122.039 155.562 121.789 155.703C121.523 155.859 121.268 155.951 121.023 155.977C120.784 156.003 120.612 156.016 120.508 156.016ZM129.953 156.078C128.401 156.078 127.195 155.484 126.336 154.297C125.596 153.276 125.227 152.029 125.227 150.555C125.227 149.789 125.346 149.034 125.586 148.289C125.799 147.617 126.112 147.01 126.523 146.469C126.935 145.927 127.44 145.495 128.039 145.172C128.643 144.849 129.339 144.688 130.125 144.688C130.896 144.688 131.547 144.82 132.078 145.086C132.615 145.352 133.029 145.698 133.32 146.125C133.612 146.552 133.771 146.914 133.797 147.211C133.823 147.503 133.836 147.69 133.836 147.773C133.836 148.195 133.75 148.612 133.578 149.023C133.37 149.523 133.029 149.974 132.555 150.375C132.086 150.771 131.521 151.065 130.859 151.258C130.203 151.451 129.497 151.547 128.742 151.547C128.539 151.547 128.331 151.542 128.117 151.531C128.211 151.87 128.344 152.18 128.516 152.461C128.688 152.737 128.898 152.961 129.148 153.133C129.398 153.299 129.69 153.383 130.023 153.383C130.362 153.383 130.68 153.292 130.977 153.109C131.273 152.922 131.464 152.646 131.547 152.281C131.615 151.984 131.763 151.799 131.992 151.727C132.227 151.648 132.44 151.609 132.633 151.609C132.768 151.609 132.906 151.622 133.047 151.648C133.391 151.716 133.669 151.844 133.883 152.031C134.102 152.219 134.211 152.435 134.211 152.68L134.195 152.828C134.076 153.448 133.818 154.003 133.422 154.492C133.031 154.977 132.536 155.362 131.938 155.648C131.339 155.935 130.677 156.078 129.953 156.078ZM128.617 149.586C128.987 149.586 129.307 149.534 129.578 149.43C129.99 149.279 130.292 149.062 130.484 148.781C130.682 148.5 130.781 148.281 130.781 148.125C130.786 147.964 130.789 147.872 130.789 147.852C130.789 147.581 130.716 147.344 130.57 147.141C130.43 146.938 130.227 146.836 129.961 146.836C129.398 146.836 128.938 147.083 128.578 147.578C128.224 148.068 128.021 148.721 127.969 149.539C128.198 149.57 128.414 149.586 128.617 149.586ZM137.914 149.734C138.508 149.698 139.049 149.539 139.539 149.258C140.029 148.971 140.328 148.708 140.438 148.469C140.552 148.229 140.609 148.052 140.609 147.938C140.609 147.245 139.75 146.846 138.031 146.742C137.964 147.706 137.924 148.703 137.914 149.734ZM136.625 156.055C136.344 156.055 136.086 156.013 135.852 155.93C135.56 155.826 135.391 155.651 135.344 155.406C135.167 153.693 135.078 151.979 135.078 150.266C135.078 148.552 135.167 146.839 135.344 145.125C135.38 144.911 135.51 144.753 135.734 144.648C135.958 144.544 136.151 144.49 136.312 144.484C136.479 144.479 136.57 144.477 136.586 144.477C136.872 144.477 137.146 144.513 137.406 144.586H137.711C139.294 144.586 140.56 144.82 141.508 145.289C142.513 145.789 143.102 146.297 143.273 146.812C143.451 147.323 143.539 147.711 143.539 147.977C143.539 148.482 143.372 148.99 143.039 149.5C142.539 150.271 141.646 150.911 140.359 151.422L142.938 154.203C143.062 154.354 143.125 154.508 143.125 154.664C143.125 154.742 143.112 154.818 143.086 154.891C142.997 155.125 142.828 155.328 142.578 155.5C142.333 155.672 142.128 155.766 141.961 155.781C141.799 155.797 141.703 155.805 141.672 155.805C141.427 155.805 141.208 155.719 141.016 155.547L137.961 152.539C137.997 153.487 138.062 154.372 138.156 155.195V155.234C138.156 155.464 138.026 155.648 137.766 155.789C137.51 155.93 137.273 156.008 137.055 156.023C136.836 156.044 136.693 156.055 136.625 156.055ZM125.562 175.547C125.052 175.547 124.75 175.367 124.656 175.008C124.589 174.742 124.464 174.461 124.281 174.164C123.286 174.763 122.208 175.062 121.047 175.062C120.578 175.062 120.052 174.99 119.469 174.844C118.891 174.693 118.37 174.375 117.906 173.891C117.448 173.406 117.206 172.773 117.18 171.992C117.19 171.289 117.396 170.672 117.797 170.141C118.203 169.609 118.695 169.135 119.273 168.719C118.31 167.583 117.828 166.591 117.828 165.742C117.828 165.294 117.951 164.904 118.195 164.57C118.44 164.237 118.763 163.966 119.164 163.758C119.81 163.424 120.531 163.258 121.328 163.258C121.516 163.258 121.776 163.279 122.109 163.32C122.443 163.357 122.807 163.471 123.203 163.664C123.604 163.857 123.927 164.122 124.172 164.461C124.417 164.794 124.539 165.203 124.539 165.688C124.539 166.141 124.443 166.56 124.25 166.945C124.062 167.331 123.815 167.69 123.508 168.023C123.201 168.352 122.865 168.664 122.5 168.961L124.477 171.148C124.669 170.716 124.766 170.234 124.766 169.703C124.766 169.479 124.867 169.312 125.07 169.203C125.273 169.094 125.5 169.039 125.75 169.039C125.995 169.039 126.219 169.094 126.422 169.203C126.63 169.312 126.734 169.479 126.734 169.703C126.734 170.854 126.43 171.865 125.82 172.734C126.357 173.417 126.693 174.003 126.828 174.492C126.839 174.549 126.844 174.607 126.844 174.664C126.844 174.857 126.76 175.031 126.594 175.188C126.427 175.344 126.201 175.451 125.914 175.508C125.794 175.534 125.677 175.547 125.562 175.547ZM121.516 173.32C122.073 173.32 122.625 173.133 123.172 172.758C122.828 172.393 122.039 171.599 120.805 170.375C120.284 170.849 120.023 171.299 120.023 171.727C120.023 172.174 120.122 172.523 120.32 172.773C120.596 173.138 120.995 173.32 121.516 173.32ZM121.18 167.344C121.534 167.078 121.82 166.81 122.039 166.539C122.258 166.263 122.367 165.971 122.367 165.664C122.367 165.43 122.268 165.25 122.07 165.125C121.878 165 121.656 164.935 121.406 164.93C121.156 164.93 120.932 164.995 120.734 165.125C120.542 165.255 120.445 165.461 120.445 165.742C120.445 166.122 120.69 166.656 121.18 167.344ZM110.766 194.008H109.844C109.172 194.008 108.565 193.987 108.023 193.945C107.388 193.857 107.018 193.534 106.914 192.977C106.737 191.523 106.648 189.992 106.648 188.383C106.648 184.872 106.859 182.94 107.281 182.586C107.49 182.414 107.742 182.315 108.039 182.289C108.628 182.247 109.286 182.227 110.016 182.227C110.906 182.227 111.724 182.268 112.469 182.352C112.786 182.404 113.005 182.542 113.125 182.766C113.245 182.99 113.305 183.216 113.305 183.445C113.305 183.841 113.19 184.167 112.961 184.422C112.779 184.625 112.544 184.727 112.258 184.727L112.133 184.719C111.492 184.651 110.786 184.617 110.016 184.617L109.516 184.625C109.438 185.542 109.391 186.422 109.375 187.266H111.734C111.99 187.266 112.18 187.357 112.305 187.539C112.43 187.716 112.492 187.911 112.492 188.125C112.492 188.339 112.43 188.536 112.305 188.719C112.18 188.896 111.99 188.984 111.734 188.984H109.375C109.38 189.719 109.424 190.602 109.508 191.633H109.922C110.802 191.633 111.539 191.599 112.133 191.531L112.242 191.523C112.534 191.523 112.766 191.62 112.938 191.812C113.135 192.021 113.245 192.221 113.266 192.414C113.292 192.602 113.305 192.732 113.305 192.805C113.305 193.029 113.253 193.237 113.148 193.43C113.013 193.685 112.786 193.839 112.469 193.891C111.818 193.964 111.25 194.003 110.766 194.008ZM118.531 193.891C118.125 193.891 117.682 193.865 117.203 193.812C116.724 193.755 116.328 193.669 116.016 193.555C115.135 193.221 114.492 192.732 114.086 192.086C113.695 191.466 113.5 190.799 113.5 190.086C113.5 190.055 113.503 189.849 113.508 189.469C113.518 189.083 113.724 188.581 114.125 187.961C114.526 187.336 115.096 186.88 115.836 186.594C116.227 186.438 116.659 186.359 117.133 186.359C117.555 186.359 118.01 186.422 118.5 186.547C118.281 184.896 117.849 184.07 117.203 184.07C116.99 184.07 116.784 184.13 116.586 184.25C116.388 184.365 116.208 184.5 116.047 184.656C115.885 184.812 115.745 184.958 115.625 185.094C115.458 185.26 115.271 185.344 115.062 185.344C114.651 185.344 114.315 185.164 114.055 184.805C113.966 184.685 113.922 184.562 113.922 184.438C113.922 184.312 113.969 184.188 114.062 184.062C114.37 183.703 114.693 183.393 115.031 183.133C115.37 182.872 115.742 182.669 116.148 182.523C116.56 182.378 117.034 182.305 117.57 182.305C118.253 182.305 118.833 182.44 119.312 182.711C120.891 183.622 121.68 185.784 121.68 189.195V189.797C121.669 190.615 121.591 191.628 121.445 192.836C121.388 193.18 121.138 193.432 120.695 193.594C120.154 193.792 119.432 193.891 118.531 193.891ZM118.594 191.695C118.62 191.242 118.633 190.664 118.633 189.961C118.633 189.529 118.622 189.104 118.602 188.688C118.362 188.63 118.135 188.602 117.922 188.602C117.354 188.602 116.875 188.786 116.484 189.156C116.146 189.479 115.977 189.833 115.977 190.219C115.977 190.401 116.034 190.604 116.148 190.828C116.268 191.047 116.529 191.247 116.93 191.43C117.331 191.607 117.885 191.695 118.594 191.695ZM125.781 187.734C126.375 187.698 126.917 187.539 127.406 187.258C127.896 186.971 128.195 186.708 128.305 186.469C128.419 186.229 128.477 186.052 128.477 185.938C128.477 185.245 127.617 184.846 125.898 184.742C125.831 185.706 125.792 186.703 125.781 187.734ZM124.492 194.055C124.211 194.055 123.953 194.013 123.719 193.93C123.427 193.826 123.258 193.651 123.211 193.406C123.034 191.693 122.945 189.979 122.945 188.266C122.945 186.552 123.034 184.839 123.211 183.125C123.247 182.911 123.378 182.753 123.602 182.648C123.826 182.544 124.018 182.49 124.18 182.484C124.346 182.479 124.438 182.477 124.453 182.477C124.74 182.477 125.013 182.513 125.273 182.586H125.578C127.161 182.586 128.427 182.82 129.375 183.289C130.38 183.789 130.969 184.297 131.141 184.812C131.318 185.323 131.406 185.711 131.406 185.977C131.406 186.482 131.24 186.99 130.906 187.5C130.406 188.271 129.513 188.911 128.227 189.422L130.805 192.203C130.93 192.354 130.992 192.508 130.992 192.664C130.992 192.742 130.979 192.818 130.953 192.891C130.865 193.125 130.695 193.328 130.445 193.5C130.201 193.672 129.995 193.766 129.828 193.781C129.667 193.797 129.57 193.805 129.539 193.805C129.294 193.805 129.076 193.719 128.883 193.547L125.828 190.539C125.865 191.487 125.93 192.372 126.023 193.195V193.234C126.023 193.464 125.893 193.648 125.633 193.789C125.378 193.93 125.141 194.008 124.922 194.023C124.703 194.044 124.56 194.055 124.492 194.055ZM133.656 193.836C132.906 193.836 132.495 193.62 132.422 193.188C132.26 191.708 132.18 190.013 132.18 188.102C132.18 186.367 132.26 184.781 132.422 183.344C132.464 183.094 132.63 182.917 132.922 182.812C133.146 182.734 133.391 182.695 133.656 182.695C133.74 182.695 133.893 182.703 134.117 182.719C134.346 182.734 134.589 182.812 134.844 182.953C135.099 183.094 135.227 183.305 135.227 183.586C135.841 183.19 136.495 182.992 137.188 182.992C137.974 182.992 138.628 183.138 139.148 183.43C140.107 183.971 140.745 184.917 141.062 186.266C141.25 187.099 141.344 188.055 141.344 189.133C141.344 189.945 141.292 190.904 141.188 192.008L141.109 193.117C141.083 193.372 140.927 193.557 140.641 193.672C140.38 193.776 140.086 193.828 139.758 193.828C139.727 193.828 139.609 193.826 139.406 193.82C139.208 193.815 138.974 193.747 138.703 193.617C138.432 193.482 138.294 193.292 138.289 193.047C138.299 192.865 138.32 192.607 138.352 192.273C138.409 191.69 138.458 190.984 138.5 190.156C138.521 189.802 138.531 189.451 138.531 189.102C138.531 188.638 138.508 188.089 138.461 187.453C138.414 186.818 138.266 186.229 138.016 185.688C137.766 185.146 137.375 184.867 136.844 184.852C136.406 184.878 136.023 185.096 135.695 185.508C135.372 185.919 135.146 186.367 135.016 186.852C135.005 187.326 135 187.794 135 188.258C135 189.951 135.076 191.523 135.227 192.977C135.227 193.237 135.099 193.438 134.844 193.578C134.531 193.75 134.135 193.836 133.656 193.836Z" fill="#E9873B"/>
</g>
<defs>
<clipPath id="clip0_34_1954">
<rect width="243" height="233" fill="white"/>
</clipPath>
</defs>
</svg>
