<svg width="59" height="65" viewBox="0 0 59 65" fill="none" xmlns="http://www.w3.org/2000/svg">
<g clip-path="url(#clip0_73_2)">
<path d="M28 75.8125C51.6792 75.8125 70.875 56.4208 70.875 32.5C70.875 8.57917 51.6792 -10.8125 28 -10.8125C4.32079 -10.8125 -14.875 8.57917 -14.875 32.5C-14.875 56.4208 4.32079 75.8125 28 75.8125Z" fill="url(#paint0_linear_73_2)"/>
<path d="M35.4933 9.77341C36.42 8.13938 35.866 6.05234 34.2561 5.11187C32.6461 4.1714 30.5896 4.73366 29.6629 6.36766L28.0469 9.21774L26.4305 6.36766C25.5038 4.73366 23.4473 4.1714 21.8373 5.11187C20.2274 6.05234 19.6734 8.13938 20.6001 9.77341L24.1658 16.0611L12.8872 35.9492H3.80108C1.94342 35.9492 0.4375 37.4775 0.4375 39.3629C0.4375 41.2482 1.94342 42.7765 3.80108 42.7765H35.4492C35.7267 42.0365 36.0188 40.7668 35.708 39.5999C35.241 37.8457 33.5125 35.9492 30.616 35.9492H20.6491L35.4933 9.77341Z" fill="white"/>
<path d="M14.6365 46.5513C14.0626 45.9044 12.777 44.8707 11.6493 44.5307C9.93036 44.0119 8.62705 44.3374 7.9695 44.6208L5.46407 49.039C4.53742 50.6728 5.09139 52.7598 6.70141 53.7003C8.31143 54.6408 10.3677 54.0787 11.2944 52.4445L14.6365 46.5513Z" fill="white"/>
<path d="M47.0778 42.7764H52.1989C54.0566 42.7764 55.5625 41.2481 55.5625 39.3628C55.5625 37.4774 54.0566 35.9491 52.1989 35.9491H43.2062L33.0761 18.0864C32.3236 18.8122 30.8809 20.6663 30.6628 22.7685C30.3826 25.4709 30.8028 27.7467 32.0642 29.9751C36.3049 37.4672 40.5522 44.956 44.799 52.4447C45.7257 54.0788 47.7819 54.6409 49.3922 53.7004C51.0021 52.7599 51.5561 50.6729 50.6294 49.0391L47.0778 42.7764Z" fill="white"/>
</g>
<defs>
<linearGradient id="paint0_linear_73_2" x1="28" y1="-10.8125" x2="28" y2="75.8125" gradientUnits="userSpaceOnUse">
<stop stop-color="#2AC9FA"/>
<stop offset="1" stop-color="#1F65EB"/>
</linearGradient>
<clipPath id="clip0_73_2">
<rect width="59" height="65" fill="white"/>
</clipPath>
</defs>
</svg>
