<svg width="62" height="66" viewBox="0 0 62 66" fill="none" xmlns="http://www.w3.org/2000/svg">
<path d="M33.1875 29.7188L42.375 19.875L6.71875 0.625C6.5 0.40625 6.0625 0.40625 5.40625 0.1875L33.1875 29.7188Z" fill="#00F076"/>
<path d="M46.3125 43.9375L59.2188 36.9375C60.75 36.0625 61.625 34.75 61.625 33C61.625 31.25 60.75 29.7187 59.2188 29.0625L46.3125 22.0625L36.0312 33L46.3125 43.9375Z" fill="#FFC900"/>
<path d="M1.25 2.15625C0.59375 2.8125 0.375 3.6875 0.375 4.5625V61.4375C0.375 62.3125 0.59375 63.1875 1.25 64.0625L30.125 33L1.25 2.15625Z" fill="#00D6FF"/>
<path d="M33.1875 36.2812L5.40625 65.8125C5.84375 65.8125 6.28125 65.5937 6.71875 65.375L42.375 46.125L33.1875 36.2812Z" fill="#FF3A44"/>
</svg>
