<svg width="19" height="19" viewBox="0 0 19 19" fill="none" xmlns="http://www.w3.org/2000/svg">
<path d="M18.5686 1.6654C18.5677 1.65263 18.5668 1.63986 18.5653 1.62726C18.5637 1.61438 18.5616 1.60162 18.5594 1.58885C18.5572 1.57528 18.555 1.5617 18.552 1.54834C18.5494 1.53649 18.5461 1.52486 18.5429 1.51311C18.5393 1.49948 18.5357 1.4858 18.5313 1.4725C18.5275 1.46075 18.523 1.44922 18.5186 1.43764C18.5138 1.42493 18.5091 1.41216 18.5037 1.39977C18.4984 1.38765 18.4924 1.37586 18.4864 1.36395C18.4808 1.35258 18.4753 1.34111 18.4691 1.33007C18.4625 1.31806 18.455 1.30647 18.4477 1.29473C18.4411 1.28417 18.4346 1.27356 18.4275 1.26333C18.4199 1.25234 18.4116 1.24178 18.4034 1.23111C18.3953 1.22055 18.3872 1.21005 18.3786 1.19998C18.3706 1.1905 18.3619 1.18139 18.3534 1.17223C18.3434 1.16157 18.3333 1.15106 18.3228 1.14088C18.3192 1.13749 18.3162 1.13372 18.3126 1.13038C18.3072 1.12548 18.3015 1.12138 18.2961 1.1167C18.2851 1.10695 18.2739 1.09752 18.2623 1.08836C18.2524 1.0806 18.2425 1.07317 18.2323 1.06595C18.2212 1.05798 18.2098 1.05028 18.1983 1.0429C18.1872 1.03579 18.1761 1.029 18.1647 1.02248C18.1534 1.01596 18.1418 1.00982 18.1302 1.00384C18.1183 0.997755 18.1064 0.991938 18.0943 0.986551C18.0824 0.981218 18.0704 0.976262 18.0583 0.971522C18.046 0.966673 18.0336 0.962095 18.0211 0.957893C18.0087 0.953745 17.9961 0.94992 17.9835 0.946365C17.9708 0.942756 17.9579 0.939416 17.945 0.936453C17.9324 0.933545 17.9197 0.931013 17.907 0.928696C17.8934 0.926218 17.8797 0.924171 17.8659 0.922394C17.8537 0.920832 17.8414 0.919539 17.829 0.918515C17.8143 0.91733 17.7995 0.91663 17.7847 0.916253C17.7776 0.916199 17.7706 0.915283 17.7635 0.915283H14.5314C14.0851 0.915283 13.7234 1.27706 13.7234 1.72331C13.7234 2.16955 14.0851 2.53133 14.5314 2.53133H15.9141L11.0075 7.83039L8.90787 5.73072C8.75262 5.57542 8.54135 5.49111 8.32114 5.49418C8.10157 5.49839 7.89316 5.59174 7.74383 5.75281L1.01031 13.0179C0.706982 13.3452 0.726374 13.8564 1.05368 14.1598C1.20925 14.3039 1.40624 14.3752 1.60276 14.3752C1.81984 14.3752 2.03639 14.2882 2.19563 14.1165L8.35863 7.46694L10.4586 9.56689C10.6139 9.72224 10.8274 9.80838 11.0455 9.80342C11.2651 9.79922 11.4736 9.70571 11.6228 9.54453L16.9555 3.78527V4.9554C16.9555 5.40164 17.3172 5.76342 17.7635 5.76342C18.2097 5.76342 18.5715 5.40164 18.5715 4.9554V1.72331C18.5715 1.71824 18.5709 1.71339 18.5707 1.70838C18.5705 1.69406 18.5696 1.67973 18.5686 1.6654Z" fill="white"/>
<path d="M17.7636 17.0756H1.60319C1.15694 17.0756 0.795166 17.4374 0.795166 17.8836C0.795166 18.3299 1.15694 18.6916 1.60319 18.6916H17.7636C18.2099 18.6916 18.5717 18.3299 18.5717 17.8836C18.5717 17.4374 18.2099 17.0756 17.7636 17.0756Z" fill="white"/>
</svg>
