<svg width="20" height="20" viewBox="0 0 20 20" fill="none" xmlns="http://www.w3.org/2000/svg">
<path fill-rule="evenodd" clip-rule="evenodd" d="M10.052 1.05498e-06H9.948C9.0495 -2.6445e-05 8.3003 -4.47482e-05 7.70552 0.0732519C7.07773 0.150628 6.51093 0.320825 6.05546 0.738339C5.59999 1.15585 5.41432 1.67542 5.32991 2.25089C5.27259 2.64173 5.25637 3.57635 5.25179 4.37769C3.22954 4.43823 2.01536 4.65463 1.17157 5.42811C1.19209e-07 6.50205 0 8.23057 0 11.6875C0 15.1444 1.19209e-07 16.873 1.17157 17.9469C2.34314 19.0208 4.22876 19.0208 7.99998 19.0208H12C15.7712 19.0208 17.6569 19.0208 18.8284 17.9469C20 16.873 20 15.1444 20 11.6875C20 8.23057 20 6.50205 18.8284 5.42811C17.9846 4.65463 16.7705 4.43823 14.7482 4.37769C14.7436 3.57635 14.7274 2.64173 14.6701 2.25089C14.5857 1.67542 14.4 1.15585 13.9445 0.738339C13.4891 0.320825 12.9223 0.150628 12.2945 0.0732519C11.6997 -4.47482e-05 10.9505 -2.6445e-05 10.052 1.05498e-06ZM13.2479 4.35589C13.2434 3.57979 13.229 2.74456 13.1835 2.43412C13.1214 2.0111 13.0142 1.83007 12.8839 1.71061C12.7536 1.59115 12.5561 1.49287 12.0946 1.436C11.6116 1.37647 10.964 1.375 10 1.375C9.036 1.375 8.3884 1.37647 7.90539 1.436C7.44393 1.49287 7.24644 1.59115 7.11612 1.71061C6.9858 1.83007 6.87858 2.0111 6.81654 2.43412C6.771 2.74456 6.75661 3.57979 6.75208 4.35589C7.1435 4.35417 7.55885 4.35417 8 4.35417H12C12.4412 4.35417 12.8565 4.35417 13.2479 4.35589ZM10 7.33333C10.4142 7.33333 10.75 7.64114 10.75 8.02083V8.03018C11.8388 8.28162 12.75 9.06858 12.75 10.1597C12.75 10.5394 12.4142 10.8472 12 10.8472C11.5858 10.8472 11.25 10.5394 11.25 10.1597C11.25 9.80769 10.8242 9.31947 10 9.31947C9.1758 9.31947 8.75 9.80769 8.75 10.1597C8.75 10.5118 9.1758 11 10 11C11.3849 11 12.75 11.8798 12.75 13.2153C12.75 14.3064 11.8388 15.0934 10.75 15.3448V15.3542C10.75 15.7338 10.4142 16.0417 10 16.0417C9.5858 16.0417 9.25 15.7338 9.25 15.3542V15.3448C8.1612 15.0934 7.25 14.3064 7.25 13.2153C7.25 12.8356 7.58579 12.5278 8 12.5278C8.4142 12.5278 8.75 12.8356 8.75 13.2153C8.75 13.5673 9.1758 14.0555 10 14.0555C10.8242 14.0555 11.25 13.5673 11.25 13.2153C11.25 12.8632 10.8242 12.375 10 12.375C8.6151 12.375 7.25 11.4953 7.25 10.1597C7.25 9.06858 8.1612 8.28162 9.25 8.03018V8.02083C9.25 7.64114 9.5858 7.33333 10 7.33333Z" fill="white"/>
</svg>
