<svg width="25" height="23" viewBox="0 0 25 23" fill="none" xmlns="http://www.w3.org/2000/svg">
<path d="M17.6902 12.4197L17.6994 12.4171M17.3266 1.32413L4.31474 4.96287C3.1761 5.28129 2.60677 5.4405 2.23424 5.78517C1.90655 6.08836 1.68307 6.48841 1.59584 6.92799C1.49666 7.42772 1.65692 8.00079 1.97744 9.14693L4.72445 18.9701C5.04496 20.1162 5.2052 20.6892 5.54924 21.0651C5.85184 21.3956 6.25039 21.6217 6.68784 21.7109C7.18512 21.8124 7.75444 21.6532 8.89309 21.3348L20.6851 18.0372C21.8238 17.7187 22.3932 17.5595 22.7657 17.2148C23.0933 16.9116 23.3168 16.5116 23.404 16.0721C23.5032 15.5722 23.343 14.9992 23.0224 13.8531L21.42 8.12294C21.0995 6.97681 20.9392 6.40371 20.5952 6.02792C20.2927 5.69734 19.894 5.47126 19.4566 5.38202C18.9594 5.28059 18.39 5.43981 17.2514 5.75823L6.27257 8.82842M18.1477 12.2918C18.2188 12.5461 18.0716 12.8095 17.819 12.8802C17.5664 12.9508 17.3039 12.8019 17.2328 12.5476C17.1617 12.2934 17.3089 12.0299 17.5615 11.9592C17.8141 11.8886 18.0766 12.0375 18.1477 12.2918Z" stroke="#3A8D97" stroke-width="2" stroke-linecap="round" stroke-linejoin="round"/>
</svg>
