<svg width="26" height="25" viewBox="0 0 26 25" fill="none" xmlns="http://www.w3.org/2000/svg">
<path fill-rule="evenodd" clip-rule="evenodd" d="M11.8861 1.61281C12.6608 1.28206 13.5376 1.28206 14.3122 1.61281L23.2774 5.44087C25.3293 6.31704 24.7012 9.36617 22.4687 9.36617H3.72962C1.49716 9.36617 0.869009 6.31703 2.92094 5.44087L11.8861 1.61281ZM13.5035 3.49277C13.2453 3.38252 12.953 3.38252 12.6948 3.49277L4.178 7.12929C4.0754 7.1731 4.10787 7.32074 4.2201 7.32074H21.9783C22.0905 7.32074 22.1229 7.1731 22.0203 7.12929L13.5035 3.49277Z" fill="#E9FDFF"/>
<path d="M2.71289 22.3683C2.71289 21.8159 3.17791 21.3682 3.75154 21.3682H22.4472C23.0208 21.3682 23.4858 21.8159 23.4858 22.3683C23.4858 22.9207 23.0208 23.3685 22.4472 23.3685H3.75154C3.17791 23.3685 2.71289 22.9207 2.71289 22.3683Z" fill="#E9FDFF"/>
<path d="M12.0605 19.3678C12.0605 19.9202 12.5255 20.368 13.0992 20.368C13.6728 20.368 14.1378 19.9202 14.1378 19.3678V11.3664C14.1378 10.814 13.6728 10.3662 13.0992 10.3662C12.5255 10.3662 12.0605 10.814 12.0605 11.3664V19.3678Z" fill="#E9FDFF"/>
<path d="M6.86726 20.368C6.29364 20.368 5.82861 19.9202 5.82861 19.3678V11.3664C5.82861 10.814 6.29363 10.3662 6.86726 10.3662C7.44088 10.3662 7.90591 10.814 7.90591 11.3664V19.3678C7.90591 19.9202 7.44089 20.368 6.86726 20.368Z" fill="#E9FDFF"/>
<path d="M18.2925 19.3678C18.2925 19.9202 18.7575 20.368 19.3311 20.368C19.9048 20.368 20.3698 19.9202 20.3698 19.3678V11.3664C20.3698 10.814 19.9048 10.3662 19.3311 10.3662C18.7575 10.3662 18.2925 10.814 18.2925 11.3664V19.3678Z" fill="#E9FDFF"/>
</svg>
