<svg width="28" height="28" viewBox="0 0 28 28" fill="none" xmlns="http://www.w3.org/2000/svg">
<path fill-rule="evenodd" clip-rule="evenodd" d="M10.8418 3.84171C11.0606 3.62292 11.3573 3.5 11.6667 3.5H16.3334C18.2665 3.5 19.8334 5.06701 19.8334 7V17.5C19.8334 19.433 18.2665 21 16.3334 21H8.16675C6.23376 21 4.66675 19.433 4.66675 17.5V10.5C4.66675 10.1906 4.78967 9.89383 5.00845 9.67504L10.8418 3.84171ZM16.3334 5.83333H12.8334V10.5C12.8334 11.1443 12.3111 11.6667 11.6667 11.6667H7.00008V17.5C7.00008 18.1443 7.52242 18.6667 8.16675 18.6667H16.3334C16.9778 18.6667 17.5001 18.1443 17.5001 17.5V7C17.5001 6.35567 16.9778 5.83333 16.3334 5.83333ZM8.64999 9.33333H10.5001V7.48324L8.64999 9.33333ZM22.1667 5.83333C22.8111 5.83333 23.3334 6.35567 23.3334 7V21C23.3334 22.9331 21.7665 24.5 19.8334 24.5H8.16675C7.52242 24.5 7.00008 23.9777 7.00008 23.3333C7.00008 22.689 7.52242 22.1667 8.16675 22.1667H19.8334C20.4778 22.1667 21.0001 21.6444 21.0001 21V7C21.0001 6.35567 21.5224 5.83333 22.1667 5.83333Z" fill="#3A8D97"/>
</svg>
