<svg width="26" height="26" viewBox="0 0 26 26" fill="none" xmlns="http://www.w3.org/2000/svg">
<path d="M21.2333 22.75H4.76663C3.35829 22.75 2.16663 21.5583 2.16663 20.15V15.1667H4.33329V19.7167C4.33329 20.3667 4.76663 20.5833 5.41663 20.5833H20.5833C21.2333 20.5833 21.6666 20.15 21.6666 19.5V15.1667H23.8333V20.15C23.8333 21.5583 22.6416 22.75 21.2333 22.75Z" fill="#225775"/>
<path d="M16.575 13.1083L14.5167 15.1667V10.8333C14.5167 8.66667 14.5167 5.525 17.1167 3.25C13.4334 3.9 11.5917 6.71667 11.4834 10.8333V15.1667L9.42504 13.1083L7.58337 14.0833L13 19.5L18.4167 14.0833L16.575 13.1083Z" fill="#225775"/>
</svg>
