<svg width="29" height="29" viewBox="0 0 29 29" fill="none" xmlns="http://www.w3.org/2000/svg">
<path d="M14.5001 2.46497C7.85425 2.46497 2.41675 7.89038 2.41675 14.5725C2.41675 20.6142 6.83925 25.6287 12.6151 26.535V18.0767H9.54592V14.5725H12.6151V11.902C12.6151 8.86913 14.4155 7.20163 17.1826 7.20163C18.4997 7.20163 19.8772 7.43122 19.8772 7.43122V10.4158H18.3547C16.8563 10.4158 16.3851 11.3462 16.3851 12.3008V14.5725H19.7442L19.2005 18.0767H16.3851V26.535C19.2324 26.0852 21.8252 24.6325 23.6954 22.4387C25.5655 20.2451 26.5899 17.4551 26.5834 14.5725C26.5834 7.89038 21.1459 2.46497 14.5001 2.46497Z" fill="#225775"/>
</svg>
