<svg width="21" height="22" viewBox="0 0 21 22" fill="none" xmlns="http://www.w3.org/2000/svg">
<path d="M14.9069 0H6.10354C2.27964 0 0 2.387 0 6.391V15.598C0 19.613 2.27964 22 6.10354 22H14.8964C18.7203 22 21 19.613 21 15.609V6.391C21.0105 2.387 18.7308 0 14.9069 0ZM6.04051 7.854C6.04051 6.963 6.73386 6.226 7.59528 6.226C8.44621 6.226 9.15006 6.952 9.15006 7.854C9.15006 8.745 8.45671 9.482 7.59528 9.482C6.73386 9.471 6.04051 8.745 6.04051 7.854ZM7.16457 15.422C6.96497 15.422 6.76537 15.345 6.60779 15.18C6.30314 14.861 6.30314 14.344 6.60779 14.014L13.4887 6.809C13.7934 6.49 14.2976 6.49 14.6023 6.809C14.9069 7.128 14.9069 7.656 14.6023 7.975L7.72135 15.18C7.56377 15.345 7.36417 15.422 7.16457 15.422ZM14.4657 15.774C13.6148 15.774 12.9109 15.048 12.9109 14.146C12.9109 13.255 13.6043 12.518 14.4657 12.518C15.3166 12.518 16.0205 13.244 16.0205 14.146C16.0205 15.048 15.3271 15.774 14.4657 15.774Z" fill="white"/>
</svg>
