<svg width="7" height="16" viewBox="0 0 7 16" fill="none" xmlns="http://www.w3.org/2000/svg">
<path d="M3.47276 0C4.24222 0 4.86868 0.597888 4.86868 1.33225C4.86868 2.06661 4.24222 2.6645 3.47276 2.6645C2.70331 2.6645 2.07685 2.06661 2.07685 1.33225C2.07685 0.597888 2.70331 0 3.47276 0ZM5.22957 3.00894H1.74319C0.776265 3.00894 0 3.7498 0 4.67262V8.74086C0 9.0593 0.265564 9.32575 0.61284 9.32575C0.960117 9.32575 1.22568 9.0723 1.22568 8.74086V5.00406C1.22568 4.91308 1.30739 4.83509 1.40272 4.83509C1.49805 4.83509 1.57977 4.91308 1.57977 5.00406V15.0902C1.57977 15.5906 1.9679 16 2.45136 16C2.93482 16 3.32296 15.5906 3.32296 15.0902V9.33875C3.32296 9.24777 3.40467 9.16978 3.5 9.16978C3.59533 9.16978 3.67704 9.24777 3.67704 9.33875V15.0902C3.67704 15.5906 4.06518 16 4.54864 16C5.0321 16 5.42023 15.5906 5.42023 15.0902V5.00406C5.42023 4.91308 5.50195 4.83509 5.59728 4.83509C5.69261 4.83509 5.77432 4.91308 5.77432 5.00406V8.74736C5.77432 9.0658 6.03988 9.33225 6.38716 9.33225C6.73444 9.33225 7 9.0788 7 8.74736V4.67262C6.97276 3.7498 6.17607 3.00894 5.22957 3.00894Z" fill="#3A8D97"/>
</svg>
