<svg width="10" height="12" viewBox="0 0 10 12" fill="none" xmlns="http://www.w3.org/2000/svg">
<path opacity="0.91" d="M4.96904 -1.52588e-05C4.67686 -1.51818e-05 4.38755 0.0592516 4.11761 0.174398C3.84768 0.289544 3.60241 0.458331 3.39581 0.671094C3.18921 0.883857 3.02533 1.13643 2.91352 1.41442C2.80171 1.69241 2.74416 1.99034 2.74416 2.29124C2.74416 2.59213 2.80171 2.89009 2.91352 3.16808C3.02533 3.44606 3.18921 3.69864 3.39581 3.9114C3.60241 4.12416 3.84768 4.29295 4.11761 4.4081C4.38755 4.52324 4.67686 4.58251 4.96904 4.58251C5.26121 4.58251 5.55053 4.52324 5.82046 4.4081C6.0904 4.29295 6.33567 4.12416 6.54226 3.9114C6.74886 3.69864 6.91275 3.44606 7.02456 3.16808C7.13637 2.89009 7.19392 2.59213 7.19392 2.29124C7.19392 1.99034 7.13637 1.69241 7.02456 1.41442C6.91275 1.13643 6.74886 0.883837 6.54226 0.671074C6.33567 0.458311 6.0904 0.289544 5.82046 0.174398C5.55053 0.0592516 5.26121 -1.52845e-05 4.96904 -1.52588e-05ZM6.95926 5.05799L5.01684 8.18721L3.04834 5.06022C1.24752 5.8472 0.0568327 7.64238 0 9.65616C1.218 11.0901 3.00385 12 5.00054 12C6.9964 12 8.78203 11.0913 10 9.65839C9.94617 7.64483 8.75851 5.848 6.95926 5.05799Z" fill="#3A8D97" stroke="#3A8D97" stroke-width="0.004"/>
</svg>
