<svg width="21" height="21" viewBox="0 0 21 21" fill="none" xmlns="http://www.w3.org/2000/svg">
<path d="M20.05 6.65H12.45V4.75C12.45 3.99413 12.7503 3.26922 13.2847 2.73475C13.8192 2.20027 14.5441 1.9 15.3 1.9C15.552 1.9 15.7936 1.79991 15.9718 1.62175C16.1499 1.44359 16.25 1.20196 16.25 0.95C16.25 0.698044 16.1499 0.456408 15.9718 0.278249C15.7936 0.100089 15.552 0 15.3 0C14.3489 0.00196302 13.4202 0.289423 12.6343 0.825159C11.8484 1.3609 11.2414 2.12023 10.892 3.00485C10.0888 1.96169 8.91642 1.26584 7.61597 1.06035C6.31552 0.854859 4.98575 1.15533 3.9 1.9C3.9 1.9 5.60335 6.137 10.607 4.19045C10.5764 4.37561 10.5574 4.56248 10.55 4.75V6.65H2.95C2.69804 6.65 2.45641 6.75009 2.27825 6.92825C2.10009 7.10641 2 7.34804 2 7.6V18.05C2 18.302 2.10009 18.5436 2.27825 18.7218C2.45641 18.8999 2.69804 19 2.95 19H20.05C20.302 19 20.5436 18.8999 20.7218 18.7218C20.8999 18.5436 21 18.302 21 18.05V7.6C21 7.34804 20.8999 7.10641 20.7218 6.92825C20.5436 6.75009 20.302 6.65 20.05 6.65ZM3.9 17.1V14.25C4.65587 14.25 5.38078 14.5503 5.91525 15.0847C6.44973 15.6192 6.75 16.3441 6.75 17.1H3.9ZM3.9 11.4V8.55H6.75C6.75 9.30587 6.44973 10.0308 5.91525 10.5653C5.38078 11.0997 4.65587 11.4 3.9 11.4ZM11.5 14.25C11.1242 14.25 10.7569 14.1386 10.4444 13.9298C10.132 13.721 9.88843 13.4243 9.74463 13.0771C9.60082 12.7299 9.5632 12.3479 9.63651 11.9793C9.70982 11.6108 9.89078 11.2722 10.1565 11.0065C10.4222 10.7408 10.7608 10.5598 11.1293 10.4865C11.4979 10.4132 11.8799 10.4508 12.2271 10.5946C12.5743 10.7384 12.871 10.982 13.0798 11.2944C13.2886 11.6069 13.4 11.9742 13.4 12.35C13.4 12.8539 13.1998 13.3372 12.8435 13.6935C12.4872 14.0498 12.0039 14.25 11.5 14.25ZM19.1 17.1H16.25C16.25 16.3441 16.5503 15.6192 17.0847 15.0847C17.6192 14.5503 18.3441 14.25 19.1 14.25V17.1ZM19.1 11.4C18.3441 11.4 17.6192 11.0997 17.0847 10.5653C16.5503 10.0308 16.25 9.30587 16.25 8.55H19.1V11.4Z" fill="#8C5F08"/>
</svg>
