<svg width="15" height="15" viewBox="0 0 15 15" fill="none" xmlns="http://www.w3.org/2000/svg">
<path d="M7.08555 0.765503C5.64539 2.17886 4.68352 4.07825 4.47339 6.19995H9.69771C9.48757 4.07825 8.5257 2.17886 7.08555 0.765503Z" fill="#3A8D97"/>
<path d="M8.59375 0C9.95508 1.63124 11.2836 3.9571 11.4687 6.19992H14.171C13.8163 3.36456 11.4723 0.858025 8.59375 0Z" fill="#3A8D97"/>
<path d="M4.47339 7.97131C4.68352 10.093 5.64539 11.9924 7.08555 13.4058C8.5257 11.9924 9.48757 10.093 9.69771 7.97131H4.47339Z" fill="#3A8D97"/>
<path d="M0 6.19992H2.70206C2.88717 3.9571 4.21572 1.63124 5.57705 0C2.67084 0.899431 0.354724 3.36456 0 6.19992Z" fill="#3A8D97"/>
<path d="M5.56332 14.1712C4.202 12.54 2.88717 10.2141 2.70206 7.97131H0C0.354724 10.8067 2.67084 13.3132 5.56332 14.1712Z" fill="#3A8D97"/>
<path d="M14.1715 7.97131H11.4695C11.2844 10.2141 9.95581 12.54 8.59448 14.1712C11.5144 13.3132 13.8168 10.8067 14.1715 7.97131Z" fill="#3A8D97"/>
</svg>
