<svg width="20" height="23" viewBox="0 0 20 23" fill="none" xmlns="http://www.w3.org/2000/svg">
<path d="M19.4441 2.23873C19.1117 1.16954 18.1501 0.0825308 17.1926 0.16272C16.207 0.255931 15.95 0.91458 15.8116 1.26755C15.7321 1.47248 15.7088 1.51017 15.6786 1.5184C15.5388 1.56158 15.2934 1.44712 15.0645 1.28743C15.0666 1.1716 15.0672 1.08113 15.0672 1.01464H15.266V0.277864H10.0797H4.89281V1.01464H5.09157C5.09157 1.08181 5.09225 1.1716 5.09431 1.28743C4.86539 1.44643 4.61934 1.56158 4.48021 1.5184C4.45005 1.51017 4.42675 1.47248 4.34725 1.26755C4.2088 0.91458 3.9511 0.255931 2.96621 0.16272C2.00805 0.0825308 1.04784 1.17023 0.714742 2.23873C0.3042 3.55603 0.761347 4.73488 1.93677 5.39353L5.83794 7.57714C5.40273 7.60044 5.05593 7.95752 5.05593 8.39754C5.05593 8.854 5.42603 9.22342 5.88181 9.22342C6.3273 9.22342 6.68781 8.86976 6.70426 8.42769L6.9462 8.2351C7.50752 8.8636 8.21209 9.27619 8.51571 9.47015L7.91327 9.45713V10.71H8.87554C8.82688 11.49 8.53559 14.5159 6.9181 15.3706V16.0594H6.19571V16.8805L5.13954 16.8873V22.1133H10.0791H15.0193V16.8873L13.9631 16.8805V16.0594H13.2407V15.3706C11.6232 14.5159 11.3319 11.49 11.2833 10.71H12.2455V9.45713L11.6431 9.47015C11.946 9.27619 12.6513 8.8636 13.2126 8.2351L13.4545 8.42769C13.4703 8.87045 13.8315 9.22342 14.277 9.22342C14.7335 9.22342 15.1029 8.854 15.1029 8.39754C15.1029 7.95684 14.7561 7.60044 14.3202 7.57714L18.2214 5.39353C19.3968 4.73488 19.8539 3.55603 19.4441 2.23873ZM2.48576 4.41138C1.59203 3.91174 1.61259 3.13589 1.78804 2.57251C2.04506 1.74594 2.67424 1.24973 2.86135 1.28194C3.15606 1.30936 3.18073 1.37241 3.29999 1.67672C3.40965 1.95635 3.59264 2.42584 4.1574 2.59513C4.49803 2.69656 4.83661 2.63899 5.14434 2.52179C5.21356 3.64924 5.376 5.13308 5.74884 6.23791L2.48576 4.41138ZM10.0791 7.14809C8.74874 7.13918 7.67201 6.05903 7.67201 4.72665C7.67201 3.39428 8.74874 2.31344 10.0791 2.30521C11.4094 2.31412 12.4861 3.39428 12.4861 4.72665C12.4861 6.05903 11.4094 7.13987 10.0791 7.14809ZM17.6737 4.41138L14.4093 6.23791C14.7828 5.13308 14.9446 3.64924 15.0145 2.52179C15.3215 2.63968 15.6601 2.69725 16.0007 2.59513C16.5662 2.42584 16.7492 1.95635 16.8581 1.67672C16.9767 1.37241 17.0014 1.30936 17.2975 1.28194C17.4832 1.24973 18.1124 1.74594 18.3701 2.57251C18.5455 3.13589 18.5668 3.91174 17.6737 4.41138Z" fill="#77838F"/>
</svg>
