<svg width="26" height="25" viewBox="0 0 26 25" fill="none" xmlns="http://www.w3.org/2000/svg">
<path d="M21.6668 18.75H5.2001C3.79176 18.75 2.6001 17.6041 2.6001 16.25V11.4583H4.76676V15.8333C4.76676 16.4583 5.2001 16.6666 5.8501 16.6666H21.0168C21.6668 16.6666 22.1001 16.25 22.1001 15.625V11.4583H24.2668V16.25C24.2668 17.6041 23.0751 18.75 21.6668 18.75Z" fill="white"/>
<path d="M17.008 9.47917L14.9497 11.4583V7.29167C14.9497 5.20833 14.9497 2.1875 17.5497 0C13.8664 0.625 12.0247 3.33333 11.9164 7.29167V11.4583L9.85802 9.47917L8.01636 10.4167L13.433 15.625L18.8497 10.4167L17.008 9.47917Z" fill="white"/>
</svg>
