<svg width="25" height="24" viewBox="0 0 25 24" fill="none" xmlns="http://www.w3.org/2000/svg">
<path d="M12.5 15C14.1569 15 15.5 13.6569 15.5 12C15.5 10.3431 14.1569 9 12.5 9C10.8431 9 9.5 10.3431 9.5 12C9.5 13.6569 10.8431 15 12.5 15Z" stroke="#77838F" stroke-width="2" stroke-miterlimit="10" stroke-linecap="round" stroke-linejoin="round"/>
<path fill-rule="evenodd" clip-rule="evenodd" d="M19.9 15C19.7669 15.3016 19.7272 15.6362 19.786 15.9606C19.8448 16.285 19.9995 16.5843 20.23 16.82L20.29 16.88C20.6653 17.2553 20.8761 17.7643 20.8761 18.295C20.8761 18.8257 20.6653 19.3347 20.29 19.71C19.9147 20.0853 19.4057 20.2961 18.875 20.2961C18.3443 20.2961 17.8353 20.0853 17.46 19.71L17.4 19.65C17.1663 19.4236 16.8712 19.2707 16.5514 19.2103C16.2317 19.15 15.9012 19.1847 15.601 19.3104C15.3008 19.436 15.0441 19.6469 14.8626 19.9171C14.6811 20.1872 14.5828 20.5046 14.58 20.83V21C14.58 21.5304 14.3693 22.0391 13.9942 22.4142C13.6191 22.7893 13.1104 23 12.58 23C12.0496 23 11.5409 22.7893 11.1658 22.4142C10.7907 22.0391 10.58 21.5304 10.58 21V20.91C10.5621 20.5823 10.4515 20.2665 10.261 19.9993C10.0705 19.7321 9.80792 19.5246 9.50397 19.4009C9.20001 19.2773 8.86717 19.2425 8.54423 19.3008C8.22129 19.359 7.92157 19.5079 7.68 19.73L7.62 19.79C7.24472 20.1653 6.73573 20.3761 6.205 20.3761C5.67427 20.3761 5.16528 20.1653 4.79 19.79C4.41472 19.4147 4.20389 18.9057 4.20389 18.375C4.20389 17.8443 4.41472 17.3353 4.79 16.96L4.85 16.9C5.07642 16.6663 5.22929 16.3712 5.28966 16.0515C5.35003 15.7317 5.31525 15.4012 5.18963 15.101C5.06402 14.8008 4.85308 14.544 4.58296 14.3625C4.31284 14.1811 3.99541 14.0828 3.67 14.08H3.5C2.96957 14.08 2.46086 13.8693 2.08579 13.4942C1.71071 13.1191 1.5 12.6105 1.5 12.08C1.5 11.5496 1.71071 11.0408 2.08579 10.6658C2.46086 10.2907 2.96957 10.08 3.5 10.08H3.59C3.91766 10.0621 4.2335 9.9515 4.50068 9.76099C4.76787 9.57047 4.97539 9.30792 5.09907 9.00397C5.22275 8.70001 5.25748 8.36719 5.19922 8.04425C5.14096 7.72131 4.9921 7.42156 4.77 7.17999L4.71 7.12C4.33472 6.74471 4.12389 6.23575 4.12389 5.70502C4.12389 5.17429 4.33472 4.66526 4.71 4.28998C5.08528 3.9147 5.59427 3.70386 6.125 3.70386C6.65573 3.70386 7.16472 3.9147 7.54 4.28998L7.6 4.34998C7.83568 4.58051 8.13502 4.73519 8.45941 4.79401C8.78381 4.85283 9.11838 4.81311 9.42 4.67999H9.5C9.79585 4.55334 10.0482 4.3429 10.2259 4.07458C10.4035 3.80627 10.4988 3.4918 10.5 3.16998V3C10.5 2.46957 10.7107 1.96089 11.0858 1.58582C11.4609 1.21074 11.9696 1 12.5 1C13.0304 1 13.5391 1.21074 13.9142 1.58582C14.2893 1.96089 14.5 2.46957 14.5 3V3.09003C14.5028 3.41544 14.6011 3.73287 14.7826 4.00299C14.9641 4.27311 15.2208 4.484 15.521 4.60962C15.8212 4.73524 16.1517 4.77003 16.4714 4.70966C16.7912 4.64929 17.0863 4.49644 17.32 4.27002L17.38 4.21002C17.7553 3.83474 18.2643 3.6239 18.795 3.6239C19.3257 3.6239 19.8347 3.83474 20.21 4.21002C20.5853 4.5853 20.7961 5.09427 20.7961 5.625C20.7961 6.15573 20.5853 6.6647 20.21 7.03998L20.15 7.09998C19.9195 7.33565 19.7648 7.63502 19.706 7.95941C19.6472 8.28381 19.6869 8.61837 19.82 8.91998V9C19.947 9.29562 20.1575 9.5477 20.4258 9.72534C20.694 9.90299 21.0083 9.99846 21.33 10H21.5C22.0304 10 22.5391 10.2107 22.9142 10.5858C23.2893 10.9609 23.5 11.4696 23.5 12C23.5 12.5304 23.2893 13.0391 22.9142 13.4142C22.5391 13.7893 22.0304 14 21.5 14H21.41C21.0883 14.0015 20.774 14.097 20.5058 14.2747C20.2375 14.4523 20.027 14.7044 19.9 15Z" stroke="#77838F" stroke-width="2" stroke-miterlimit="10" stroke-linecap="round" stroke-linejoin="round"/>
</svg>
