<svg width="27" height="26" viewBox="0 0 27 26" fill="none" xmlns="http://www.w3.org/2000/svg">
<path fill-rule="evenodd" clip-rule="evenodd" d="M12.1861 1.35203C13.0251 0.993781 13.9749 0.993781 14.8139 1.35203L24.5244 5.49836C26.747 6.44737 26.0666 9.75001 23.6485 9.75001H3.35144C0.933378 9.75001 0.253003 6.44736 2.47553 5.49836L12.1861 1.35203ZM13.938 3.3883C13.6583 3.26888 13.3417 3.26888 13.062 3.3883L3.83711 7.32716C3.72598 7.37461 3.76115 7.53453 3.8827 7.53453H23.1173C23.2389 7.53453 23.274 7.37461 23.1628 7.32716L13.938 3.3883Z" fill="#E9FDFF"/>
<path d="M2.25 23.8333C2.25 23.235 2.75368 22.75 3.375 22.75H23.625C24.2463 22.75 24.75 23.235 24.75 23.8333C24.75 24.4317 24.2463 24.9167 23.625 24.9167H3.375C2.75368 24.9167 2.25 24.4317 2.25 23.8333Z" fill="#E9FDFF"/>
<path d="M12.375 20.5833C12.375 21.1817 12.8787 21.6667 13.5 21.6667C14.1213 21.6667 14.625 21.1817 14.625 20.5833V11.9167C14.625 11.3184 14.1213 10.8333 13.5 10.8333C12.8787 10.8333 12.375 11.3184 12.375 11.9167V20.5833Z" fill="#E9FDFF"/>
<path d="M6.75 21.6667C6.12868 21.6667 5.625 21.1817 5.625 20.5833V11.9167C5.625 11.3184 6.12867 10.8333 6.75 10.8333C7.37131 10.8333 7.875 11.3184 7.875 11.9167V20.5833C7.875 21.1817 7.37133 21.6667 6.75 21.6667Z" fill="#E9FDFF"/>
<path d="M19.125 20.5833C19.125 21.1817 19.6287 21.6667 20.25 21.6667C20.8713 21.6667 21.375 21.1817 21.375 20.5833V11.9167C21.375 11.3184 20.8713 10.8333 20.25 10.8333C19.6287 10.8333 19.125 11.3184 19.125 11.9167V20.5833Z" fill="#E9FDFF"/>
</svg>
