<svg width="25" height="24" viewBox="0 0 25 24" fill="none" xmlns="http://www.w3.org/2000/svg">
<path d="M6.75 17.5V10.625M12.5 17.5V6.5M18.25 17.5V13.375M1 18.6V5.4C1 3.85986 1 3.08978 1.31336 2.50153C1.58899 1.98409 2.0288 1.56338 2.56978 1.29974C3.18477 1 3.98986 1 5.6 1H19.4C21.0101 1 21.8153 1 22.4303 1.29974C22.9712 1.56338 23.4111 1.98409 23.6866 2.50153C24 3.08978 24 3.85986 24 5.4V18.6C24 20.1401 24 20.9103 23.6866 21.4985C23.4111 22.0159 22.9712 22.4367 22.4303 22.7002C21.8153 23 21.0101 23 19.4 23H5.6C3.98986 23 3.18477 23 2.56978 22.7002C2.0288 22.4367 1.58899 22.0159 1.31336 21.4985C1 20.9103 1 20.1401 1 18.6Z" stroke="#77838F" stroke-width="2" stroke-linecap="round" stroke-linejoin="round"/>
</svg>
