<svg width="25" height="22" viewBox="0 0 25 22" fill="none" xmlns="http://www.w3.org/2000/svg">
<path d="M18.251 13.6865H18.2625M21.4444 1H5.08889C3.65765 1 2.94202 1 2.39536 1.27247C1.91449 1.51216 1.52354 1.89461 1.27854 2.36502C1 2.8998 1 3.59986 1 5V17C1 18.4001 1 19.1001 1.27854 19.635C1.52354 20.1054 1.91449 20.4878 2.39536 20.7275C2.94202 21 3.65764 21 5.08889 21H19.9111C21.3423 21 22.058 21 22.6047 20.7275C23.0855 20.4878 23.4765 20.1054 23.7214 19.635C24 19.1001 24 18.4001 24 17V10C24 8.59989 24 7.89979 23.7214 7.36502C23.4765 6.89461 23.0855 6.51216 22.6047 6.27247C22.058 5.99999 21.3423 5.99999 19.9111 5.99999H6.11111M18.826 13.6865C18.826 13.9971 18.5685 14.249 18.251 14.249C17.9335 14.249 17.676 13.9971 17.676 13.6865C17.676 13.3759 17.9335 13.124 18.251 13.124C18.5685 13.124 18.826 13.3759 18.826 13.6865Z" stroke="#3A8D97" stroke-width="2" stroke-linecap="round" stroke-linejoin="round"/>
</svg>
